<?xml version="1.0" encoding="utf-8" ?>
<svg xmlns="http://www.w3.org/2000/svg" xmlns:xlink="http://www.w3.org/1999/xlink" width="610" height="568">
	<path fill="#AAF5FE" transform="scale(0.794289 0.740704)" d="M-0 -0L768 0L768 768L-0 768L0 -0Z"/>
	<path transform="scale(0.794289 0.740704)" d="M147.285 187.666C148.981 161.118 155.145 135.253 165.271 110.648C170.733 97.3751 177.439 84.5423 184.405 72.0013C190.168 61.6258 196.529 49.6232 205.57 41.7391C211.97 36.1572 220.152 32.4078 228.75 33.0498C234.36 33.4687 240.109 34.7289 245.571 36.0514C258.668 39.2224 272.582 44.214 284.016 51.4022C289.988 45.921 297.524 42.032 304.603 38.1484C338.265 19.6795 376.677 9.45474 415.193 11.1085C447.192 12.4825 479.114 20.8231 507.638 35.354C517.09 40.1687 525.86 45.9607 534.338 52.318L540.929 57.535C541.331 57.8737 543.33 59.7508 543.535 59.7625C543.645 59.7688 546.002 57.7894 546.268 57.5791C550.085 54.5695 554.02 51.6593 558.178 49.1387C563.247 46.066 568.53 43.2988 573.996 41.002C583.239 37.1185 592.932 34.5079 602.84 33.0469C607.325 32.3854 612.644 31.7457 617.075 32.8878C620.053 33.6555 622.399 35.0663 624.448 37.3557C628.952 42.389 630.83 50.6275 632.819 56.9786L641.261 89.4861C645.373 107.213 648.915 125.261 651.048 143.344C652.434 155.087 653.317 166.926 652.542 178.747C652.024 186.652 651.153 195.207 648.948 202.843L649.347 203.189C660.762 213.251 665.943 231.082 668.911 245.513C670.526 246.792 670.922 248.911 672.172 250.527C678.035 258.104 684.407 265.003 689.766 273L694.701 280.338C695.16 281.021 695.018 280.735 695.151 281.597C697.023 283.808 698.557 286.556 700.186 288.966C705.073 296.191 709.707 303.35 713.757 311.096C719.354 321.799 723.952 332.99 728.079 344.329C744.229 388.695 749.947 436.552 744.329 483.492L741.212 503.631C740.559 507.161 740.071 510.873 738.971 514.288L738.864 514.607C742.629 519.576 744.909 524.443 746.078 530.619C749.691 549.714 742.57 571.063 731.827 586.763C720.987 602.603 704.834 614.237 685.831 617.732C684.488 630.822 681.841 643.869 679.58 656.829L678.004 666.188C677.685 668.047 677.464 670.357 676.444 671.982C675.749 673.088 674.645 673.831 673.497 674.408C667.793 677.274 661.562 679.512 655.643 681.911L624.316 694.579L567.023 717.585C557.28 721.337 547.231 725.796 537.082 728.198C536.764 728.974 536.422 730.026 535.865 730.657C534.331 732.391 531.082 733.149 528.892 733.665C520.01 735.757 510.579 736.257 501.501 735.372C497.295 734.962 492.771 733.561 488.625 733.53C486.689 733.516 484.533 734.352 482.611 734.687L469.044 736.683C421.121 742.609 372.955 745.046 324.739 741.433L300.726 738.939C295.416 738.126 290.087 736.763 284.736 736.331C280.405 735.981 275.807 736.483 271.433 736.459L252.565 735.457C202.265 731.676 150.32 719.737 109.875 688.097C98.8946 679.507 89.6677 669.631 81.9322 658L74.9819 646.475C72.003 641.73 68.709 637.144 65.9743 632.253C48.0163 600.14 36.4602 564.969 29.1125 529.017C26.7255 517.338 24.5264 505.735 23.1255 493.89C16.1944 435.289 23.7454 374.943 45.5832 320.098C53.1204 301.168 62.7758 281.917 75.4839 265.868L75.4766 265.812C76.6025 263.18 78.8443 260.731 80.5034 258.375C91.5008 242.755 104.473 228.175 117.749 214.463C127.022 204.885 136.413 195.457 147.285 187.666Z"/>
	<path fill="#D7D4D8" transform="scale(0.794289 0.740704)" d="M198.132 434.397C201.511 433.115 204.961 432.125 208.44 431.152C212.27 430.081 216.595 428.803 220.614 429.416L200.116 437.864L199.54 437.459L200.425 436.973L200.814 436.781L203.441 435.562L204.375 435.375C205.782 434.592 204.328 435.122 205.29 434.76C206.086 434.46 206.511 434.345 207.189 433.781L206.433 432.58L203.39 433.417L202.747 433.641C201.421 434.095 199.382 435.018 198.132 434.397Z"/>
	<path fill="#443839" transform="scale(0.794289 0.740704)" d="M191.38 536.438C191.48 536.919 191.508 536.69 191.295 537.142L185.438 548.471L173.918 574.828C174.595 563.475 183.69 544.516 191.38 536.438Z"/>
	<path fill="#73DCFE" transform="scale(0.794289 0.740704)" d="M60.7712 589.421C61.7156 601.341 63.6453 612.963 67.4565 624.332L73.8373 641.372C71.6789 639 70.1145 635.675 68.6132 632.855L58.6099 611.613C57.7901 609.658 56.2213 606.903 55.9814 604.855L56.4898 604.409C57.213 607.55 59.3377 610.628 60.263 613.719C60.4862 614.465 60.3137 614.085 60.75 614.812C61.4467 615.975 61.7738 617.262 62.436 618.431C63.6727 620.616 64.4759 623.072 65.6048 625.318C65.8508 625.807 66.0339 626.137 66.2122 626.672L66.375 627.188L67.1462 626.608C67.1997 625.919 67.243 626.256 66.9412 625.5C66.6301 624.72 66.7302 625.101 66.574 624.401L66.1912 622.875C65.7383 621.784 65.0176 620.112 64.8098 618.936C64.6579 618.077 64.7548 617.493 64.3838 616.675C64.1447 616.148 64.0235 615.838 63.9098 615.244L63.5663 613.688L63.3098 612.936C63.2031 612.29 63.2711 611.785 63.0198 611.156C62.4516 609.736 62.6001 608.25 62.0662 606.938C61.5608 605.695 61.9604 604.675 61.5704 603.533L61.4348 603.186L61.3163 602.062C60.9842 600.811 61.1981 599.413 60.8204 598.306C60.4676 597.273 60.6166 596.083 60.4335 595.003C60.3048 594.243 60.2932 593.636 60.2831 592.875C60.2671 591.668 60.5181 590.595 60.7712 589.421Z"/>
	<path fill="#656B81" transform="scale(0.794289 0.740704)" d="M232.888 400.995L233.119 401.896C229.749 407.112 225.277 410.617 219.609 413.07C217.928 413.797 216.092 414.214 214.457 415.007L207.865 415.635C210.272 414.516 212.67 413.67 214.982 412.312C221.085 408.73 226.502 404.11 232.888 400.995Z"/>
	<path fill="#5E4748" transform="scale(0.794289 0.740704)" d="M659.32 295.75C659.169 299.58 657.901 303.796 656.924 307.498C653.17 321.721 647.709 334.886 636.851 345.103C639.36 339.057 643.098 333.442 645.807 327.427C648.711 320.981 651.206 314.37 653.103 307.556L656.642 292.67L656.694 293.413C656.843 295.69 656.407 296.878 656.033 299.022C655.193 303.824 653.665 308.517 652.309 313.192C652.913 313.56 653.526 314.013 654.191 314.25C654.191 313.399 654.134 313.519 654.566 312.75C654.941 312.083 654.981 311.605 655.127 310.877L655.408 310.125C655.587 309.629 655.681 309.19 655.765 308.672C655.877 307.988 656.095 307.427 656.315 306.778C656.561 306.05 656.344 306.667 656.533 305.625C656.764 304.35 657.472 303.419 657.191 302.062L657.566 301.5L657.752 300.752L657.904 300.399C658.19 299.636 658.033 298.731 657.941 297.938L659.32 295.75Z"/>
	<defs>
		<linearGradient id="gradient_0" gradientUnits="userSpaceOnUse" x1="610.42889" y1="246.91331" x2="619.29376" y2="246.58305">
			<stop offset="0" stop-color="#46507E"/>
			<stop offset="1" stop-color="#487388"/>
		</linearGradient>
	</defs>
	<path fill="url(#gradient_0)" transform="scale(0.794289 0.740704)" d="M608.526 217.834L609.516 216.144L610.096 216.188C616.596 230.86 619.413 247.496 620.481 263.438C620.844 268.859 621.235 274.253 620.913 279.69L620.468 279.761C619.537 277.396 619.583 274.407 619.297 271.867L617.401 255.467C615.639 242.431 612.834 230.244 608.526 217.834Z"/>
	<path fill="#656B81" transform="scale(0.794289 0.740704)" d="M534.287 444.484C534.937 444.226 536.166 443.493 536.8 443.756C539.395 444.833 542.102 447.041 544.405 448.674C555.89 456.817 566.877 466.405 576.761 476.419L573.69 478.564C567.793 475.262 563.073 468.681 557.953 464.19L542.625 451.561L537.188 447.759C536.015 446.856 534.503 445.959 534.287 444.484Z"/>
	<path fill="#7E8B99" transform="scale(0.794289 0.740704)" d="M370.462 564.815C378.372 563.573 386.818 567.578 393.088 572.194C399.587 576.98 403.818 583.561 404.984 591.593L405.179 592.987C404.886 593.753 405.136 593.526 404.589 593.812C400.055 587.325 394.142 582.001 388.555 576.459C388.22 575.688 387.094 574.803 386.459 574.211C384.307 572.203 381.377 570.619 378.7 569.438C375.761 568.14 372.545 567.42 370.462 564.815Z"/>
	<path fill="#C94019" transform="scale(0.794289 0.740704)" d="M340.843 654.076L341.699 640.837C353.12 640.851 364.17 639.28 375.074 635.795L385.58 631.946C383.483 634.418 380.13 635.61 377.303 637.083C365.41 643.278 352.65 647.753 340.843 654.076Z"/>
	<path fill="#656B81" transform="scale(0.794289 0.740704)" d="M656.642 292.67C659.255 276.977 658.766 261.901 656.11 246.265C654.966 239.528 653.606 232.836 651.428 226.346C649.542 220.726 646.911 215.375 644.553 209.945C652.58 219.051 656.297 230.921 658.599 242.625C660.975 254.707 661.921 266.822 661.154 279.109L659.32 295.75L657.941 297.938C658.033 298.731 658.19 299.636 657.904 300.399L657.752 300.752L657.566 301.5L657.191 302.062C657.472 303.419 656.764 304.35 656.533 305.625C656.344 306.667 656.561 306.05 656.315 306.778C656.095 307.427 655.877 307.988 655.765 308.672C655.681 309.19 655.587 309.629 655.408 310.125L655.127 310.877C654.981 311.605 654.941 312.083 654.566 312.75C654.134 313.519 654.191 313.399 654.191 314.25C653.526 314.013 652.913 313.56 652.309 313.192C653.665 308.517 655.193 303.824 656.033 299.022C656.407 296.878 656.843 295.69 656.694 293.413L656.642 292.67Z"/>
	<path fill="#7E8B99" transform="scale(0.794289 0.740704)" d="M633.975 115.455L634.48 114.947L634.311 114.477C633.99 113.451 634.049 112.423 633.742 111.383L633.432 110.259L633.789 109.767C634.396 109.857 634.672 110.019 635.234 109.746C635.837 109.453 635.62 109.556 636.375 109.312C636.505 110.331 637.091 111.29 637.033 112.125C636.971 113.031 636.975 113.258 637.5 114L637.484 114.376C637.479 115.106 637.681 115.815 637.747 116.546C637.801 117.151 637.914 117.391 638.066 117.938L638.252 118.873L638.972 118.597C644.229 144.918 647.167 172.218 643.737 198.939C641.242 197.342 638.572 195.789 635.762 194.825C647.915 177.218 636.496 135.668 633.975 115.455Z"/>
	<path fill="#BCB9BD" transform="scale(0.794289 0.740704)" d="M502.043 513.276L513.304 522.379C516.925 525.395 520.894 528.627 523.627 532.5C521.02 532.768 518.349 532.974 515.801 533.612C513.57 534.171 510.923 535.389 508.665 535.537C507.857 535.589 506.922 535.272 506.224 534.886C503.659 533.467 501.264 531.577 498.792 529.988L486.493 522.658C488.42 521.013 490.96 519.675 493.113 518.329C495.998 516.527 498.868 514.53 502.043 513.276Z"/>
	<defs>
		<linearGradient id="gradient_1" gradientUnits="userSpaceOnUse" x1="239.38812" y1="257.99625" x2="257.29041" y2="233.3833">
			<stop offset="0" stop-color="#709BC0"/>
			<stop offset="1" stop-color="#62D3FB"/>
		</linearGradient>
	</defs>
	<path fill="url(#gradient_1)" transform="scale(0.794289 0.740704)" d="M245.648 244.139C243.181 237.125 240.514 230.224 236.991 223.657C235.512 220.902 233.441 218.393 232.094 215.616C237.788 218.833 243.362 223.002 247.437 228.171C253.934 236.414 257.218 247.404 259.993 257.389L261.348 262.719L264.476 275.706L264.13 275.989C263.244 275.304 262.697 274.066 262.1 273.114L258.48 267.706C256.209 264.509 253.324 261.637 251.188 258.375C250.079 256.682 249.113 254.845 248.13 253.076L245.648 244.139Z"/>
	<path fill="#5E4748" transform="scale(0.794289 0.740704)" d="M200.041 170.639C201.968 173.042 204.649 175.134 206.885 177.266C211.091 181.276 214.907 185.533 218.154 190.366C219.033 191.674 220.276 193.175 220.728 194.683C216.968 196.264 213.227 197.524 209.218 198.304L190.023 200.57L200.041 170.639Z"/>
	<path fill="#BC3114" transform="scale(0.794289 0.740704)" d="M529.58 99.3139C534.557 100.747 539.983 101.887 544.611 104.243C545.598 106.95 546.111 109.829 546.729 112.637C547.602 116.6 548.518 120.604 548.761 124.666C536 120.125 523.181 116.903 509.794 114.836L529.58 99.3139Z"/>
	<path fill="#FDFDFE" transform="scale(0.794289 0.740704)" d="M626.923 239.607C625.665 229.683 621.722 219.732 617.304 210.822L622.686 202.418L623.572 202.903C635.071 209.47 641.213 226.205 644.55 238.354C644.133 238.768 643.421 239.702 642.938 239.954C641.287 240.812 636.622 240.759 634.713 240.754C632.055 240.036 629.675 239.718 626.923 239.607Z"/>
	<path fill="#443839" transform="scale(0.794289 0.740704)" d="M388.555 576.459C394.142 582.001 400.055 587.325 404.589 593.812C405.136 593.526 404.886 593.753 405.179 592.987C406.103 597.772 402.309 605.112 399.698 609.029C397.461 612.385 394.818 615.478 391.85 618.209C390.956 616.335 390.096 614.297 388.897 612.597C384.242 605.993 377.539 601.381 371.568 596.154C374.151 596.308 376.606 597.739 378.926 598.826C381.696 597.268 384.219 595.164 386.05 592.543C388.911 588.447 389.567 583.558 388.729 578.725C388.63 578.155 388.556 577.631 388.552 577.05L388.555 576.459Z"/>
	<path fill="#5E4748" transform="scale(0.794289 0.740704)" d="M615.478 111.762L619.374 144.169C620.845 157.648 623.1 170.614 619.524 183.978L615.796 175.693C611.786 167.784 606.88 160.351 601.043 153.665C603.145 149.537 604.638 145.169 606.305 140.856C609.976 131.36 613.122 121.667 615.478 111.762Z"/>
	<path fill="#FF8B38" transform="scale(0.794289 0.740704)" d="M690.426 439.094L701.73 451.456L696.468 488.711C695.615 494.989 694.427 501.442 694.505 507.791L694.076 507.992C688.808 510.509 685.121 514.327 681.495 518.798L689.478 463.167L689.182 462.903C690.567 460.917 690.076 456.824 690.124 454.444L690.426 439.094Z"/>
	<path fill="#FF8B38" transform="scale(0.794289 0.740704)" d="M261.351 449.016C261.241 450.63 260.192 451.652 259.244 452.899L253.109 460.743L235.35 486.303C226.432 498.857 215.492 509.745 210.627 524.727C210.198 526.049 209.174 528.508 209.367 529.807C207.854 535.991 206.993 543.421 207.921 549.737L209.801 559.876L209.938 560.323C205.772 553.197 204.078 544.254 203.226 536.15C202.778 531.891 202.455 527.174 203.261 522.938C204.3 517.468 207.945 511.586 210.694 506.777C223.326 484.686 240.352 463.681 261.351 449.016Z"/>
	<path fill="#5E4748" transform="scale(0.794289 0.740704)" d="M248.13 253.076C249.113 254.845 250.079 256.682 251.188 258.375C253.324 261.637 256.209 264.509 258.48 267.706L262.1 273.114C262.697 274.066 263.244 275.304 264.13 275.989L264.476 275.706L264.774 276.2C264.125 277.651 264.719 279.446 264.908 280.98C265.385 284.839 266.136 288.689 266.387 292.57C267.085 303.35 264.46 313.148 261.222 323.317C258.173 332.891 254.072 343.598 247.365 351.206C248.474 346.898 250.134 342.669 250.859 338.273C252.5 328.312 252.672 317.889 252.755 307.807C252.849 296.402 252.74 284.932 251.532 273.585L249.46 260.198C248.994 257.764 248.274 255.581 248.13 253.076Z"/>
	<path fill="#D7D4D8" transform="scale(0.794289 0.740704)" d="M202.413 249.436L207.158 270.577L209.349 285.736C200.947 289.435 193.082 295.547 185.262 300.4L182.857 287.157L176.526 265.617L176.842 265.44C180.459 263.759 183.711 260.576 186.909 258.145C191.715 254.492 196.82 251.682 202.413 249.436Z"/>
	<path fill="#BCB9BD" transform="scale(0.794289 0.740704)" d="M207.158 270.577L209.349 285.736C200.947 289.435 193.082 295.547 185.262 300.4L182.857 287.157C185.894 286.223 188.922 283.476 191.434 281.524C196.266 277.77 201.598 273.134 207.158 270.577Z"/>
	<defs>
		<linearGradient id="gradient_2" gradientUnits="userSpaceOnUse" x1="412.23621" y1="77.494644" x2="423.04608" y2="19.313768">
			<stop offset="0" stop-color="#9BA8BC"/>
			<stop offset="1" stop-color="#73CBF7"/>
		</linearGradient>
	</defs>
	<path fill="url(#gradient_2)" transform="scale(0.794289 0.740704)" d="M296.366 57.0656L294.082 56.0625C294.299 55.0101 297.046 53.6227 298.022 52.981C327.845 33.3768 364.312 21.1186 399.987 19.5411C416.454 18.8129 432.782 20.3549 448.912 23.6894C473.263 28.7236 496.825 38.1156 517.699 51.6424C524.526 56.0667 531.172 60.7351 536.974 66.4781L534.572 68.2478C530.559 64.8705 526.11 61.9986 521.763 59.0758C506.177 48.5955 488.651 40.0831 470.778 34.3023C437.531 23.5487 400.771 20.4912 366.454 27.6615C353.683 30.3299 340.712 34.865 328.749 40.0554C317.461 44.9534 307.273 51.4996 296.366 57.0656Z"/>
	<path fill="#BC3114" transform="scale(0.794289 0.740704)" d="M539.091 705.492C540.817 705.564 542.235 704.765 543.792 704.13L552.39 700.584L566.513 695.232C577.582 691.077 588.807 687.701 600.188 684.518C610.204 681.717 619.846 679.085 630.173 677.651C633.645 677.168 640.919 675.647 643.81 677.809L537.225 720.174L539.091 705.492Z"/>
	<path fill="#FF8B38" transform="scale(0.794289 0.740704)" d="M340.599 434.88L340.355 457.744C339.657 460.494 339.73 463.262 339.674 466.08L339.419 477.544L338.539 514.414C333.866 510.549 329.365 508.245 323.766 506.011L324.321 436.685L335.25 435.689C336.774 435.534 338.641 435.604 340.077 435.083L340.599 434.88Z"/>
	<path fill="#FDFDFE" transform="scale(0.794289 0.740704)" d="M168.379 226.677C173.52 224.922 179.891 223.063 185.106 225.562C194.373 230.005 199.153 240.253 202.413 249.436C196.82 251.682 191.715 254.492 186.909 258.145C183.711 260.576 180.459 263.759 176.842 265.44L176.526 265.617C173.742 258.713 170.658 253.595 165.736 248.02C160.175 242.583 154.599 240.223 146.83 240.062C147.994 238.539 149.782 237.2 151.282 236.014C156.422 231.954 162.292 229.031 168.379 226.677Z"/>
	<path fill="#BCB9BD" transform="scale(0.794289 0.740704)" d="M165.736 248.02C160.175 242.583 154.599 240.223 146.83 240.062C147.994 238.539 149.782 237.2 151.282 236.014C156.422 231.954 162.292 229.031 168.379 226.677C167.712 227.39 167.224 228.2 166.274 228.453C163.815 229.109 161.182 230.762 158.884 231.898L158.88 232.754C159.882 233.641 160.888 233.971 162.096 234.452L162.952 234.896C163.714 235.286 164.125 235.421 165 235.312L165.375 234.941L166.312 234.566L166.875 234.191L167.627 234.002L168.849 233.429C169.429 233.139 169.792 233.085 170.43 233.037C172.961 232.849 174.954 231.155 177.669 231.464C178.585 232.532 178.766 234.031 178.671 235.401C178.466 238.369 176.932 239.998 174.724 241.794C171.939 244.061 168.915 246.335 165.736 248.02Z"/>
	<path fill="#1E1920" transform="scale(0.794289 0.740704)" d="M620.913 279.69C620.933 282.829 620.345 286.585 619.951 289.726C618.403 302.053 614.922 314.153 610.653 325.803C610.301 324.665 610.507 323.094 610.503 321.897L610.376 313.512L608.915 294.777C606.69 272.814 601.632 250.262 594.659 229.317C600.14 226.041 604.189 222.468 608.526 217.834C612.834 230.244 615.639 242.431 617.401 255.467L619.297 271.867C619.583 274.407 619.537 277.396 620.468 279.761L620.913 279.69Z"/>
	<defs>
		<linearGradient id="gradient_3" gradientUnits="userSpaceOnUse" x1="310.11783" y1="74.962807" x2="258.88925" y2="118.43998">
			<stop offset="0" stop-color="#372D2F"/>
			<stop offset="1" stop-color="#8B8588"/>
		</linearGradient>
	</defs>
	<path fill="url(#gradient_3)" transform="scale(0.794289 0.740704)" d="M230.254 46.4646C239.175 48.9999 247.896 52.7702 256.363 56.5297C262.997 59.4756 269.712 62.1987 276.132 65.6052C287.589 71.6847 298.662 79.6799 308.453 88.1805C315.651 94.4299 321.674 102.257 329.134 108.099C333.483 111.504 338.229 114.236 342.75 117.379C344.616 118.676 347.185 121.291 349.252 122.08C349.519 122.182 349.823 122.112 350.109 122.127L350.238 122.162C352.937 125.265 354.902 128.838 356.85 132.436C351.709 133.548 346.655 135.538 341.828 137.604C330.764 117.565 315.167 98.2509 296.1 85.2802C284.493 77.3839 271.69 71.747 258.408 67.3277C251.666 65.0843 243.555 62.3172 236.367 63.8831C231.894 64.8576 229.881 68.4781 227.51 72.0104L224.392 77.914C222.317 74.9951 222.987 69.8366 223.39 66.4149C224.931 59.7277 227.196 52.6259 230.254 46.4646Z"/>
	<defs>
		<linearGradient id="gradient_4" gradientUnits="userSpaceOnUse" x1="425.0864" y1="68.561295" x2="435.52231" y2="114.38425">
			<stop offset="0" stop-color="#FFA44B"/>
			<stop offset="1" stop-color="#99C8F5"/>
		</linearGradient>
	</defs>
	<path fill="url(#gradient_4)" transform="scale(0.794289 0.740704)" d="M343.571 105.592C341.315 102.727 338.933 100.284 336.094 97.9952C340.827 95.228 345.549 92.4035 350.502 90.0434C361.176 84.9578 373.126 81.0543 384.573 78.1166C413.3 70.7435 442.594 68.898 471.652 75.5462C480.95 77.2079 490.584 79.2338 499.405 82.6521C504.996 84.4159 510.427 86.746 515.865 88.9325C519.832 90.5274 524.219 91.9711 527.765 94.3802C520.308 93.1328 513.14 90.876 505.846 88.9408C504.094 88.4758 500.602 88.0367 499.269 87.0805L469.102 82.0454L463.969 81.7269C458.926 80.8589 453.44 80.9417 448.331 80.9414C431.294 80.9404 414.908 83.136 398.198 86.314C395.248 86.0787 391.702 87.2707 388.769 87.833C378.73 89.758 369.312 91.8682 359.823 95.7632C355.306 97.6175 350.452 99.9632 346.728 103.164C345.684 104.061 344.857 105.035 343.571 105.592Z"/>
	<path fill="#FDFDFE" transform="scale(0.794289 0.740704)" d="M216.78 282.469C215.58 270.923 214.002 259.804 210.62 248.656C207.615 238.755 203.19 228.533 194.847 221.988C192.223 219.929 189.2 218.439 186.27 216.874C188.931 213.02 192.081 210.253 196.769 209.239C203.088 207.872 209.98 209.047 215.402 212.579C221.821 216.76 225.899 223.015 229.257 229.748C234.37 240 237.462 251.021 239.846 262.179L216.78 282.469Z"/>
	<path fill="#443839" transform="scale(0.794289 0.740704)" d="M655.412 581.099L659.315 583.114C670.471 587.742 684.029 585.124 694.828 580.633C705.542 576.176 716.223 569.579 722.715 559.734C724.946 556.35 726.487 552.711 728.047 548.987L730.746 563.322C731.068 564.982 731.163 567.311 731.975 568.799L732.262 569.291C730.729 573.462 728.174 577.285 725.675 580.934C718.576 591.3 709.977 599.913 698.488 605.266C691.981 608.297 682.62 611.351 675.545 608.826C667.546 605.971 661.792 599.402 658.316 591.837C656.884 588.719 655.466 584.547 655.412 581.099Z"/>
	<path fill="#AAF5FE" transform="scale(0.794289 0.740704)" d="M377.806 52.6537C379.549 52.0308 383.74 52.4167 385.744 52.4208C393.022 52.4356 400.182 52.8402 407.357 54.1507C416.185 55.7633 424.422 58.5724 432.812 61.6648C407.851 63.2039 382.179 68.0817 358.599 76.4383C349.871 79.67 340.624 83.0877 332.729 88.0625C327.46 81.6701 321.128 76.388 314.873 71.002C316.459 69.6686 319.255 68.6958 321.153 67.7811C338.524 59.4062 358.65 54.2674 377.806 52.6537Z"/>
	<path fill="#AF9B9B" transform="scale(0.794289 0.740704)" d="M275.634 300.082L276.188 295.819L277.471 295.336C281.343 297.092 284.523 301.946 287.21 305.173L301.835 322.151C304.136 324.648 306.591 327.618 309.418 329.497L309.73 329.723L309.314 329.894C301.411 339.162 291.505 346.707 281.565 353.657C272.354 360.098 263.107 366.042 252.906 370.823C250.552 371.926 246.847 374.124 244.333 374.174L243.888 374.133C249.58 367.906 253.863 360.703 257.868 353.326C266.76 336.942 274.172 318.811 275.634 300.082Z"/>
	<defs>
		<linearGradient id="gradient_5" gradientUnits="userSpaceOnUse" x1="179.53308" y1="363.27423" x2="209.64177" y2="287.32764">
			<stop offset="0" stop-color="#6A5866"/>
			<stop offset="1" stop-color="#7B6E78"/>
		</linearGradient>
	</defs>
	<path fill="url(#gradient_5)" transform="scale(0.794289 0.740704)" d="M185.262 300.4C193.082 295.547 200.947 289.435 209.349 285.736C210.135 306.941 211.345 329.503 204.398 349.882C202.816 354.522 200.692 359.609 197.396 363.309C195.514 365.422 193.564 366.624 190.688 366.722C184.925 366.917 177.673 363.844 172.935 360.678C181.925 348.8 185.386 331.029 185.567 316.378L185.488 306.253C185.422 304.358 185.112 302.27 185.262 300.4Z"/>
	<path fill="#BCB9BD" transform="scale(0.794289 0.740704)" d="M644.55 238.354L645.999 244.676C650.291 267.304 649.787 292.7 642.299 314.613C638.997 324.278 634.229 333.664 628.118 341.854C624.607 346.56 621.107 350.565 615.784 353.168C614.902 351.768 613.183 349.05 613.192 347.331C613.194 346.933 613.84 345.852 614.042 345.4L617.256 338.445C619.02 334.3 620.539 330.035 621.921 325.748C625.044 316.064 627.596 305.991 628.853 295.881C631.187 277.097 629.778 258.244 626.923 239.607C629.675 239.718 632.055 240.036 634.713 240.754C636.622 240.759 641.287 240.812 642.938 239.954C643.421 239.702 644.133 238.768 644.55 238.354Z"/>
	<path fill="#D7D4D8" transform="scale(0.794289 0.740704)" d="M644.55 238.354L645.999 244.676C645.724 245.16 645.673 246 645.562 246.559C645.091 246.325 644.729 246.211 644.202 246.171L643.107 246.093C640.35 245.806 636.372 242.886 634.713 240.754C636.622 240.759 641.287 240.812 642.938 239.954C643.421 239.702 644.133 238.768 644.55 238.354Z"/>
	<path fill="#73DCFE" transform="scale(0.794289 0.740704)" d="M270.415 178.186C283.706 170.269 297.061 162.861 311.244 156.634C328.097 149.234 345.563 143.772 363.19 138.582C411.581 124.332 462.475 114.298 512.9 123.034C528.644 125.762 545.046 129.128 559.711 135.68C568.422 139.572 576.729 144.945 584.299 150.727C590.146 155.193 595.923 159.94 600.186 165.99C597.329 164.475 594.846 161.729 592.314 159.688C589.633 157.526 586.773 155.621 583.88 153.756C570.762 145.299 554.879 140.279 539.988 135.851C538.956 135.33 538.122 134.97 536.998 134.693L525.246 131.6C509.717 128.184 493.156 125.903 477.264 125.25C458.517 124.479 440.483 126.62 422.062 129.755L392.011 135.547C376.004 139.335 360.072 144.399 344.567 149.875C333.357 153.834 322.502 158.058 311.946 163.577L288.689 175.728C284.978 177.603 281.123 179.842 277.16 181.121C276.148 181.448 272.804 182.473 271.832 182.062C271.434 181.894 270.737 181.071 270.383 180.75C270.294 179.851 270.331 179.08 270.415 178.186Z"/>
	<path fill="#AF9B9B" transform="scale(0.794289 0.740704)" d="M605.546 72.0949C606.339 71.9852 606.891 72.0266 607.674 72.1875L608.298 73.1821C610.068 76.6798 609.79 83.4416 609.662 87.3139C609.2 101.322 606.911 115.392 602.233 128.625C599.826 135.43 596.728 142.037 594.696 148.962C588.858 143.636 582.462 139.244 575.784 135.062C569.813 131.019 563.279 128.245 556.956 124.876L569.668 104.625C578.163 92.1389 589.756 75.0973 605.546 72.0949Z"/>
	<path fill="#FF8B38" transform="scale(0.794289 0.740704)" d="M198.132 434.397C199.382 435.018 201.421 434.095 202.747 433.641L203.39 433.417L206.433 432.58L207.189 433.781C206.511 434.345 206.086 434.46 205.29 434.76C204.328 435.122 205.782 434.592 204.375 435.375L203.441 435.562L200.814 436.781L200.425 436.973L199.54 437.459L200.116 437.864L173.992 452.373C170.277 453.831 166.5 456.698 163.114 458.857C142.321 472.114 124.24 488.793 109.397 508.472C106.073 512.88 102.535 517.468 100.019 522.388C90.4417 539.147 84.2078 557.109 78.536 575.475C74.859 587.664 72.379 600.669 73.4238 613.436C73.6836 616.611 74.0083 620.252 75.1401 623.246C75.585 624.658 75.9352 626.274 76.774 627.505L75.4388 627.744L73.5969 622.226C71.4982 615.418 70.3625 608.05 69.7105 600.958C67.1511 573.123 73.9698 543.732 87.1864 519.171C93.7529 506.968 102.828 495.929 112.572 486.131C132.216 466.38 155.404 451.119 181.188 440.65C186.757 438.389 192.365 436.109 198.132 434.397Z"/>
	<path fill="#6F6667" transform="scale(0.794289 0.740704)" d="M515.432 449.887C521.86 448.918 528.173 446.638 534.287 444.484C534.503 445.959 536.015 446.856 537.188 447.759L542.625 451.561L557.953 464.19C563.073 468.681 567.793 475.262 573.69 478.564C555.691 491.214 536.741 505.843 526.347 525.765L526.013 525.281C525.142 524.037 517.126 515.353 517.102 515.153L517.189 514.881C518.314 512.015 518.227 508.077 518.493 504.976C520.05 486.835 519.961 467.633 515.432 449.887Z"/>
	<path fill="#BCB9BD" transform="scale(0.794289 0.740704)" d="M239.846 262.179C241.7 271.72 242.549 281.339 243.044 291.036C243.918 308.188 243.233 325.257 239.915 342.137C238.283 350.441 236.187 358.976 231.416 366.092C228.041 371.123 223.016 373.831 217.151 374.969C211.541 376.057 204.261 375.275 198.937 373.225C201.79 370.27 204.497 367.465 206.619 363.914C209.492 359.107 211.336 353.613 212.853 348.251C217.152 333.06 218.021 316.938 217.755 301.201L216.78 282.469L239.846 262.179Z"/>
	<path fill="#443839" transform="scale(0.794289 0.740704)" d="M268.697 254.553C267.512 252.53 266.823 249.972 266.086 247.748C264.712 243.598 263.448 239.478 261.692 235.469C264.791 234.098 267.688 232.188 270.615 230.486L287.481 220.378C295.893 215.332 304.692 210.997 313.556 206.814C340.092 194.291 368.768 185.236 397.127 177.855C418.108 172.394 439.795 167.697 461.406 165.733C480.591 163.989 500.34 164.213 519.351 167.444C542.505 171.379 568.452 177.33 586.312 193.554C591.631 198.385 595.937 203.887 600.075 209.727C595.176 213.474 588.914 216.14 584.447 220.327L583.977 220.782L583.632 220.268C581.214 216.526 579.958 211.295 578.224 207.14C577.79 206.1 577.36 204.507 576.751 203.632C576.41 203.142 575.291 202.484 574.798 202.095L570.612 198.736C556.374 187.137 540.575 178.046 522.579 173.77C512.13 171.287 500.193 170.194 489.465 170.43C481.435 170.606 473.501 171.464 465.528 172.351C442.787 174.88 420.515 179.356 398.25 184.527C376.469 189.585 354.157 195.135 333.346 203.391C325.187 206.627 317.025 210.719 309.565 215.35C306.125 217.485 302.793 219.827 299.743 222.495C293.33 228.105 287.806 234.569 281.856 240.643C277.577 245.012 271.761 249.231 268.697 254.553Z"/>
	<path fill="#5E4748" transform="scale(0.794289 0.740704)" d="M237.455 71.4994C244.751 71.4402 251.639 73.3597 258.587 75.3753C258.387 76.9912 256.867 79.093 256.176 80.6416L250.343 94.7078C241.745 118.38 234.691 144.843 237.684 170.228C238.278 175.265 239.578 180.204 240.828 185.109L226.039 192.938L225.188 193.462C224.958 193.391 224.683 193.406 224.5 193.251C224.27 193.056 223.705 191.622 223.528 191.271C222.58 189.394 221.528 187.579 220.387 185.812C215.392 178.078 208.671 171.83 201.626 166.004C201.908 164.127 203.122 162.003 203.797 160.204L212.579 137.215C219.272 118.619 224.453 99.4142 232 81.1321C233.464 77.5847 235.042 74.5134 237.455 71.4994Z"/>
	<path fill="#FF574F" transform="scale(0.794289 0.740704)" d="M536.884 543.66L552.826 539.316L548.958 575.793L541.222 645.272L535.529 698.062L533.456 716.1C533.053 719.392 532.789 722.799 532.059 726.031C526.575 727.08 520.824 728.373 515.219 728.328C517.057 720.859 517.537 713.258 518.464 705.649L524.194 651.2L535.569 550.359C535.706 548.895 536.115 547.049 535.446 545.69C534.335 545.864 533.793 545.764 533.06 546.734L532.842 547.12C531.535 547.712 529.904 547.47 528.504 547.348C524.585 547.004 520.976 546.296 517.184 545.242C515.425 544.753 512.607 543.852 511.688 542.217L512.525 541.657C520.593 543.545 528.619 544.398 536.884 543.66Z"/>
	<path fill="#1E1920" transform="scale(0.794289 0.740704)" d="M586.653 339.863L602.136 357.547L600.982 357.938C601.017 361.417 623.037 390.026 626.977 394.335C621.33 395.325 615.436 396.309 609.965 398.063C607.393 398.888 604.871 400.245 602.37 401.294L602.786 401.223C605.027 400.859 607.825 400.474 610.036 401.062L609.75 401.559C607.263 401.774 604.828 402.042 602.332 401.835C597.89 401.467 593.119 401.534 588.692 402.013C584.424 402.474 580.104 403.304 575.812 403.298L574.477 404.135C573.007 403.748 571.116 402.435 569.737 401.713C561.788 397.556 553.854 392.944 546.951 387.178C545.332 385.825 543.708 384.437 542.246 382.914C540.894 381.506 539.334 378.745 537.571 378.132C537.429 378.071 537.415 377.864 537.356 377.721C535.163 372.466 533.459 367.142 530.95 361.996C533.185 362.598 535.439 363.38 537.75 363.611C551.001 364.937 567.033 362.865 577.67 354.187C581.134 351.361 585.881 346.015 586.264 341.351C586.323 340.639 586.241 340.795 586.493 340.183L586.653 339.863Z"/>
	<path fill="#BCB9BD" transform="scale(0.794289 0.740704)" d="M406.424 448.003L406.488 447.187L407.25 446.54L409.125 446.735C409.886 446.872 410.462 447.04 411.241 446.99L411.879 446.941C426.063 448.514 439.568 451.229 453.938 450.206C461.861 449.643 469.375 447.984 477.197 446.908C479.635 446.572 483.777 448.532 486.265 449.161C494.085 451.137 501.434 451.722 509.466 450.883C511.172 450.705 513.849 450.551 515.432 449.887C519.961 467.633 520.05 486.835 518.493 504.976C518.227 508.077 518.314 512.015 517.189 514.881L517.102 515.153C512.633 510.882 507.72 507.054 502.875 503.225C483.763 488.125 462.901 476.203 441.375 464.954C429.952 458.985 418.313 453.009 406.424 448.003Z"/>
	<defs>
		<linearGradient id="gradient_6" gradientUnits="userSpaceOnUse" x1="135.6411" y1="287.69977" x2="177.23468" y2="292.38684">
			<stop offset="0" stop-color="#5A4D5B"/>
			<stop offset="1" stop-color="#7D717C"/>
		</linearGradient>
	</defs>
	<path fill="url(#gradient_6)" transform="scale(0.794289 0.740704)" d="M142.947 329.732L139.555 320.278C134.275 301.23 134.378 281.274 139.06 262.102C139.943 258.483 140.836 253.952 142.819 250.756C143.449 249.742 144.104 249.304 145.288 249.067C149.32 248.257 153.439 249.3 156.773 251.666C162.624 255.818 166.433 262.442 169.136 268.94C173.515 279.465 175.751 290.387 177.607 301.581C178.456 305.95 178.599 310.341 178.674 314.781C178.881 326.988 177.114 342.043 170.062 352.403C168.96 354.022 167.608 355.475 166.123 356.746C156.09 352.166 147.156 339.66 142.947 329.732Z"/>
	<path fill="#5E4748" transform="scale(0.794289 0.740704)" d="M142.947 329.732C147.773 326.434 151.531 321.331 156.562 318.191C157.499 317.607 158.277 316.912 159.187 316.305L160.875 315.188C160.727 314.518 160.682 314.106 160.777 313.418C160.946 312.206 160.861 310.969 160.783 309.75C160.675 308.048 160.441 304.756 160.875 303.188C161.213 301.968 161.33 300.976 161.203 299.683C161.15 299.145 161.108 298.462 161.25 297.938C161.542 296.859 161.548 297.694 161.55 296.854L161.625 292.125C162.293 291.123 161.832 289.918 161.908 288.75C162.162 284.879 161.352 280.294 162.188 276.566L161.131 315.693C164.806 312.982 167.881 309.828 171.34 306.872C173.288 305.207 175.951 303.458 177.607 301.581C178.456 305.95 178.599 310.341 178.674 314.781C178.881 326.988 177.114 342.043 170.062 352.403C168.96 354.022 167.608 355.475 166.123 356.746C156.09 352.166 147.156 339.66 142.947 329.732Z"/>
	<path fill="#FDFDFE" transform="scale(0.794289 0.740704)" d="M533.783 530.932L530.317 531.474C547.324 505.782 571.838 487.794 598.599 473.324C608.33 468.062 617.863 463.123 628.721 460.526C643.719 456.938 658.928 454.555 673.757 450.215C677.715 449.056 682.242 447.931 685.875 445.951C686.744 445.478 687.245 444.954 687.549 444L687.188 443.568L632.5 456.753C636.284 454.261 640.868 452.895 645.133 451.472L667.176 444.665C674.292 442.481 682.237 439.216 689.625 438.382L690.426 439.094L690.124 454.444C690.076 456.824 690.567 460.917 689.182 462.903L686.579 462.434L686.072 461.946L684.773 460.049C683.691 459.95 682.419 460.75 681.437 461.196L673.938 464.551L631.774 482.999C629.907 483.821 622.993 487.365 621.453 487.366C619.234 489.185 616.529 490.246 613.978 491.514L604.926 496.291C596.426 500.88 552.742 525.023 551.965 532.585L551.943 533.734L551.789 534.088C549.326 533.896 546.648 532.878 544.24 532.258C540.71 531.349 537.432 530.967 533.783 530.932Z"/>
	<path fill="#BCB9BD" transform="scale(0.794289 0.740704)" d="M533.783 530.932L534.022 530.875C539.733 530.031 546.057 524.356 550.835 521.044L561.732 514.051C577.36 504.798 594.338 497.286 611.238 490.671C614.383 489.44 618.039 487.273 621.453 487.366C619.234 489.185 616.529 490.246 613.978 491.514L604.926 496.291C596.426 500.88 552.742 525.023 551.965 532.585L551.943 533.734L551.789 534.088C549.326 533.896 546.648 532.878 544.24 532.258C540.71 531.349 537.432 530.967 533.783 530.932Z"/>
	<path fill="#6F6667" transform="scale(0.794289 0.740704)" d="M655.412 581.099C654.779 577.001 655.298 572.584 656.232 568.571C658.911 557.07 666.323 546.519 676.384 540.287C684.89 535.019 698.829 529.396 708.962 531.983C712.334 532.843 715.194 535.226 718.515 536.007C718.987 535.039 718.796 534.274 718.409 533.25C717.128 529.864 713.993 526.552 710.812 524.966C702.943 521.043 695.197 523.664 687.503 526.236C690.068 522.016 693.562 518.238 698.153 516.237C705.634 512.976 716.106 512.288 723.703 515.367C729.389 517.672 733.445 521.603 735.78 527.246C741.594 541.298 737.82 555.918 732.262 569.291L731.975 568.799C731.163 567.311 731.068 564.982 730.746 563.322L728.047 548.987C726.487 552.711 724.946 556.35 722.715 559.734C716.223 569.579 705.542 576.176 694.828 580.633C684.029 585.124 670.471 587.742 659.315 583.114L655.412 581.099Z"/>
	<path fill="#1E1920" transform="scale(0.794289 0.740704)" d="M100.019 522.388C106.878 523.738 113.599 525.797 120.375 527.508L154.759 535.434L166.748 537.477C170.323 537.948 173.946 537.944 177.51 538.456C178.663 538.622 180.28 538.804 181.303 539.354C178.494 544.781 175.675 550.399 173.38 556.064C171.239 561.349 169.607 566.854 167.804 572.261L156.031 572.535L108.075 574.688C98.3218 575.162 88.2855 576.141 78.536 575.475C84.2078 557.109 90.4417 539.147 100.019 522.388Z"/>
	<path fill="#FDFDFE" transform="scale(0.794289 0.740704)" d="M340.599 434.88C342.171 434.624 344.049 435.361 345.569 435.763L358.922 439.878C383.153 447.58 407.458 456.627 430.312 467.824L453.345 480.208C464.599 486.555 475.545 493.139 486.042 500.703L502.043 513.276C498.868 514.53 495.998 516.527 493.113 518.329C490.96 519.675 488.42 521.013 486.493 522.658L470.596 513.92L443.297 500.142L382.769 473.721L356.647 462.942C351.553 460.925 345.857 457.855 340.355 457.744L340.599 434.88Z"/>
	<path fill="#655755" transform="scale(0.794289 0.740704)" d="M156.031 572.535L167.804 572.261C164.724 580.553 164.03 590.27 163.192 599.024C162.923 601.841 162.997 605.228 162.267 607.911L148.524 613.117C128.282 618.379 106.939 620.515 86.1278 622.335C83.2082 622.59 77.611 622.119 75.1401 623.246C74.0083 620.252 73.6836 616.611 73.4238 613.436C72.379 600.669 74.859 587.664 78.536 575.475C88.2855 576.141 98.3218 575.162 108.075 574.688L156.031 572.535Z"/>
	<path fill="#7B4025" transform="scale(0.794289 0.740704)" d="M156.031 572.535L167.804 572.261C164.724 580.553 164.03 590.27 163.192 599.024C162.923 601.841 162.997 605.228 162.267 607.911L148.524 613.117L156.031 572.535Z"/>
	<path fill="#443839" transform="scale(0.794289 0.740704)" d="M211.852 551.845C213.875 556.977 216.706 561.186 221.101 564.562L221.584 564.944C225.226 567.779 229.825 570.002 233.976 572.024C244.015 576.912 254.312 580.579 264.676 584.648L297.501 596.996C308.576 601.091 319.485 605.166 330.9 608.29C338.758 610.441 348.663 613.205 356.812 612.267L358.906 611.848L358.991 611.876L359.656 612.189C365.077 611.665 368.358 608.09 371.757 604.197L387.438 620.492C383.479 623.565 378.6 625.428 373.875 626.977C364.037 630.202 353.995 631.871 343.665 632.398C336.2 632.778 328.721 631.949 321.332 630.959C305.75 628.87 290.076 625.183 275.484 619.255C267.99 616.21 260.919 612.49 253.883 608.521C247.564 604.956 241.241 601.22 235.843 596.325C227.663 588.906 219.884 579.29 215.881 568.894C214.839 566.187 214.261 563.326 213.571 560.516C212.837 557.528 212 554.946 211.852 551.845Z"/>
	<path fill="#AC283D" transform="scale(0.794289 0.740704)" d="M532.842 547.12C532.98 551.654 531.958 556.677 531.424 561.188L528.526 587.052L521.691 645.533L518.139 682.64C516.498 697.938 514.091 713.33 513.381 728.693C505.296 728.736 497.846 727.68 489.929 726.199L509.412 540.613L512.525 541.657L511.688 542.217C512.607 543.852 515.425 544.753 517.184 545.242C520.976 546.296 524.585 547.004 528.504 547.348C529.904 547.47 531.535 547.712 532.842 547.12Z"/>
	<defs>
		<linearGradient id="gradient_7" gradientUnits="userSpaceOnUse" x1="578.78876" y1="164.91937" x2="636.18799" y2="61.274418">
			<stop offset="0" stop-color="#392A2C"/>
			<stop offset="1" stop-color="#6F676C"/>
		</linearGradient>
	</defs>
	<path fill="url(#gradient_7)" transform="scale(0.794289 0.740704)" d="M540.326 93.297C537.254 91.291 533.195 89.5175 530.569 87.0324C542.148 71.7159 557.912 57.6856 575.618 49.8527C586.015 45.2532 597.442 42.6443 608.673 41.1185C611.073 40.7925 613.973 40.2187 616.014 41.8189C619.429 44.4961 621.289 50.8141 622.74 54.75C626.158 64.015 628.711 73.4934 631.199 83.0385C634.245 94.727 637.096 106.656 638.972 118.597L638.252 118.873L638.066 117.938C637.914 117.391 637.801 117.151 637.747 116.546C637.681 115.815 637.479 115.106 637.484 114.376L637.5 114C636.975 113.258 636.971 113.031 637.033 112.125C637.091 111.29 636.505 110.331 636.375 109.312C635.62 109.556 635.837 109.453 635.234 109.746C634.672 110.019 634.396 109.857 633.789 109.767L633.432 110.259L633.742 111.383C634.049 112.423 633.99 113.451 634.311 114.477L634.48 114.947L633.975 115.455C636.496 135.668 647.915 177.218 635.762 194.825C635.193 194.739 633.883 193.796 633.316 193.484C631.675 192.582 629.952 191.71 628.206 191.03C626.558 190.387 624.717 190.107 622.984 189.77C624.495 185.373 625.719 180.959 626.302 176.336C627.816 164.326 626.135 151.509 625.575 139.437C624.724 121.094 622.754 103.187 618.917 85.2231C617.812 80.0529 616.462 70.4247 612.188 66.8656C609.96 65.0115 605.837 65.1007 603.075 65.4509C584.863 67.7602 573.193 85.5962 563.223 99.1142L553.844 111.024C553.746 108.366 554.089 104.196 553.14 101.761C552.001 98.8368 549.298 96.9858 546.571 95.7174L544.232 94.9858C543.399 94.676 542.803 94.4548 542.161 93.8206C541.445 93.1133 541.298 93.3255 540.326 93.297Z"/>
	<path fill="#449BC5" transform="scale(0.794289 0.740704)" d="M540.326 93.297C537.254 91.291 533.195 89.5175 530.569 87.0324C542.148 71.7159 557.912 57.6856 575.618 49.8527C586.015 45.2532 597.442 42.6443 608.673 41.1185C611.073 40.7925 613.973 40.2187 616.014 41.8189C619.429 44.4961 621.289 50.8141 622.74 54.75C626.158 64.015 628.711 73.4934 631.199 83.0385C634.245 94.727 637.096 106.656 638.972 118.597L638.252 118.873L638.066 117.938C637.914 117.391 637.801 117.151 637.747 116.546C637.681 115.815 637.479 115.106 637.484 114.376L637.5 114C636.975 113.258 636.971 113.031 637.033 112.125C637.091 111.29 636.505 110.331 636.375 109.312C635.62 109.556 635.837 109.453 635.234 109.746C634.672 110.019 634.396 109.857 633.789 109.767L633.432 110.259L633.742 111.383C634.049 112.423 633.99 113.451 634.311 114.477L634.48 114.947L633.975 115.455C633.816 115.326 633.713 114.473 633.654 114.192L630.85 100.058L625.762 79.4926L620.999 61.5C619.949 58.0679 618.611 53.8444 616.347 51.0451C615.328 49.7846 614.436 48.9781 612.782 48.8252C609.403 48.5129 605.464 49.2533 602.214 50.1654C590.8 53.3686 580.392 60.6443 572.334 69.1761C566.363 75.4981 560.931 83.3757 554.079 88.703L553.18 88.5393C558.274 79.0618 566.29 69.795 573.663 62.011C571.261 63.1141 568.989 64.6553 566.877 66.2367C562.847 69.2547 558.142 72.5928 554.908 76.472L555.456 77.4429C552.387 83.6437 548.892 89.842 544.232 94.9858C543.399 94.676 542.803 94.4548 542.161 93.8206C541.445 93.1133 541.298 93.3255 540.326 93.297Z"/>
	<path fill="#1E1920" transform="scale(0.794289 0.740704)" d="M540.326 93.297C544.795 87.4523 549.51 81.4925 554.908 76.472L555.456 77.4429C552.387 83.6437 548.892 89.842 544.232 94.9858C543.399 94.676 542.803 94.4548 542.161 93.8206C541.445 93.1133 541.298 93.3255 540.326 93.297Z"/>
	<path fill="#AF9B9B" transform="scale(0.794289 0.740704)" d="M267.432 79.5231C277.887 84.0627 287.647 89.0262 296.752 95.9715C306.011 103.034 314.04 111.894 321.235 121.007C325.775 126.758 330.167 132.516 333.591 139.029C317.888 143.548 302.549 150.724 288.15 158.378L249.249 181.286C248.398 179.863 248.029 177.814 247.628 176.212C243.204 158.524 245.729 140.079 250.165 122.674C254.043 107.459 259.328 93.0237 267.432 79.5231Z"/>
	<path fill="#1D6889" transform="scale(0.794289 0.740704)" d="M249.099 217.806C251.056 217.193 252.857 215.906 254.674 214.955L264.099 210.487L300.249 195.868L331.125 183.113L395.016 161.002C413.654 155.122 432.302 149.558 451.601 146.249C462.51 144.378 473.518 143.457 484.549 142.664C493.543 142.017 502.582 141.309 511.607 141.797C522.624 142.392 533.27 144.228 544.01 146.663C559.613 150.201 575.879 156.509 589.312 165.295C594.439 168.648 598.75 173.073 602.856 177.577C604.553 179.439 606.14 181.614 608.024 183.262C608.932 184.057 609.177 184.205 610.364 184.443C612.505 187.322 613.947 192.766 613.381 196.312C612.64 200.952 610.149 204.795 607.205 208.331L607.051 207.836C605.145 201.896 601.018 196.849 596.665 192.497C589.785 185.618 582.238 180.234 573.57 175.854C561.906 169.958 548.406 166.145 535.696 163.337C515.797 158.941 495.18 156.891 474.8 157.555C457.859 158.106 441.082 160.853 424.504 164.21C402.933 168.578 381.675 174.205 360.779 181.136C331.087 190.985 302.647 202.601 275.574 218.414C269.515 221.954 263.218 225.513 257.448 229.497C254.7 225.383 252.305 221.619 249.099 217.806Z"/>
	<path fill="#FF574F" transform="scale(0.794289 0.740704)" d="M398.198 86.314C402.098 87.2231 407.189 86.1216 411.188 85.8135L441.89 83.7041C450.782 83.4637 459.387 84.2537 468.238 84.7481C483.514 86.3255 497.967 89.1539 512.697 93.5516C518.343 95.2372 523.901 97.9279 529.58 99.3139L509.794 114.836C495.074 113.451 480.645 112.029 465.819 112.21C448.869 112.416 432.71 114.782 416.054 117.591C396.884 120.824 377.706 124.5 359.594 131.787C357.949 128.437 356.401 124.958 354.562 121.714C351.35 116.047 347.48 110.79 343.571 105.592C344.857 105.035 345.684 104.061 346.728 103.164C350.452 99.9632 355.306 97.6175 359.823 95.7632C369.312 91.8682 378.73 89.758 388.769 87.833C391.702 87.2707 395.248 86.0787 398.198 86.314Z"/>
	<path fill="#6F6667" transform="scale(0.794289 0.740704)" d="M296.366 57.0656C307.273 51.4996 317.461 44.9534 328.749 40.0554C340.712 34.865 353.683 30.3299 366.454 27.6615C400.771 20.4912 437.531 23.5487 470.778 34.3023C488.651 40.0831 506.177 48.5955 521.763 59.0758C526.11 61.9986 530.559 64.8705 534.572 68.2478C529.856 72.7244 525.378 77.4463 522.654 83.4047C509.128 76.8612 494.515 71.3483 479.823 68.1601L458.716 64.256L453.663 63.6971C453.259 63.6673 452.015 63.7233 451.683 63.5631C450.889 63.1804 449.912 62.1469 449.17 61.6006C447.613 60.4544 445.963 59.4117 444.296 58.4338C434.934 52.9424 424.525 48.8382 413.947 46.4395C386.025 40.1082 358.437 44.3782 331.875 54.0054C323.915 56.8906 315.489 60.1631 308.343 64.7693L307.798 65.125C304.262 61.7632 300.53 59.5471 296.366 57.0656Z"/>
	<path fill="#BCB9BD" transform="scale(0.794289 0.740704)" d="M537.571 378.132C539.334 378.745 540.894 381.506 542.246 382.914C543.708 384.437 545.332 385.825 546.951 387.178C553.854 392.944 561.788 397.556 569.737 401.713C571.116 402.435 573.007 403.748 574.477 404.135L589.535 411.392L570.136 419.819C557.729 424.879 544.663 429.351 531.629 432.457C526.82 433.602 522.005 434.848 517.075 435.334C515.57 434.621 514.259 433.73 512.896 432.786L499.879 438.437C492.494 441.247 484.496 444.295 476.818 446.09C464.444 448.981 449.827 450.008 437.199 449.106L412.216 446.155L411.879 446.941L411.241 446.99C410.462 447.04 409.886 446.872 409.125 446.735L407.25 446.54L406.488 447.187L406.424 448.003L397.818 443.911L364.845 433.311C358.396 431.346 351.603 429.979 345.252 427.833C344.313 427.516 343.763 427.061 343.144 426.296L342.938 426.024L324.8 427.958C323.979 427.883 323.129 427.862 322.356 427.556C320.494 426.82 318.605 427.092 316.69 426.691C315.085 426.355 312.832 425.145 311.392 424.352L310.872 424.023C309.645 423.398 306.973 423.644 305.693 424.029C302.744 424.467 299.556 424.049 296.597 423.793L284.681 422.855C279.012 422.489 273.38 422.707 267.711 422.958C268.577 422.209 270.045 422.211 271.145 422.002L278.807 420.286L296.509 415.424C314.192 410.183 331.722 403.492 348.375 395.564L362.059 388.351C365.961 397.885 373.172 405.911 380.506 412.977C383.434 415.798 386.899 419.215 390.711 420.806C391.503 421.136 391.534 421.187 392.353 420.847L393.006 419.918L400.432 426.161C411.077 433.604 423.294 437.749 436.243 438.633C441.68 439.004 447.259 438.767 452.712 438.758C461.945 438.743 471.123 438.571 480.246 436.92C491.018 434.971 501.357 431.59 511.195 426.794C519.134 422.925 526.356 418.512 531.471 411.086C538.48 400.911 539.781 390.097 537.571 378.132Z"/>
	<path fill="#6F6667" transform="scale(0.794289 0.740704)" d="M397.818 443.911C400.359 443.967 402.465 444.574 404.94 444.911C407.252 445.225 410.052 445.304 412.216 446.155L411.879 446.941L411.241 446.99C410.462 447.04 409.886 446.872 409.125 446.735L407.25 446.54L406.488 447.187L406.424 448.003L397.818 443.911Z"/>
	<path transform="scale(0.794289 0.740704)" d="M508.496 291.235L511.547 290.548C517.853 288.666 525.749 288.147 532.263 289.001C538.365 289.802 544.533 291.438 550.471 293.04C556.737 294.73 565.173 297.534 571.688 296.508C574.08 296.131 576.61 294.64 577.756 292.441L577.876 292.158L578.498 292.05C580.385 298.195 581.108 304.53 582.02 310.875L585.427 336.179C585.658 337.55 585.724 338.78 586.653 339.863L586.493 340.183C586.241 340.795 586.323 340.639 586.264 341.351C585.881 346.015 581.134 351.361 577.67 354.187C567.033 362.865 551.001 364.937 537.75 363.611C535.439 363.38 533.185 362.598 530.95 361.996C533.459 367.142 535.163 372.466 537.356 377.721C537.415 377.864 537.429 378.071 537.571 378.132C539.781 390.097 538.48 400.911 531.471 411.086C526.356 418.512 519.134 422.925 511.195 426.794C501.357 431.59 491.018 434.971 480.246 436.92C471.123 438.571 461.945 438.743 452.712 438.758C447.259 438.767 441.68 439.004 436.243 438.633C423.294 437.749 411.077 433.604 400.432 426.161L393.006 419.918C391.48 417.528 390.053 415.105 389.29 412.347C387.484 405.812 388.474 399.908 391.708 394.083C391.52 403.614 395.742 411.12 402.285 417.841C411.062 426.857 422.992 431.408 435 434.281C443.079 436.214 450.751 437.442 459.063 437.508C466.436 437.567 474.008 436.939 481.09 434.83C491.739 431.994 502.11 428.975 510.927 422.037C520.948 414.15 528.99 404.892 530.454 391.784C530.925 387.565 531.147 382.927 530.36 378.754C528.064 366.579 519.487 353.59 511.83 344.133C511.582 341.719 509.729 339.237 508.552 337.125C505.153 331.026 500.138 323.65 499.138 316.694C499.057 307.917 502.854 297.934 508.496 291.235Z"/>
	<path fill="#505865" transform="scale(0.794289 0.740704)" d="M585.427 336.179C585.658 337.55 585.724 338.78 586.653 339.863L586.493 340.183C586.241 340.795 586.323 340.639 586.264 341.351C585.881 346.015 581.134 351.361 577.67 354.187C567.033 362.865 551.001 364.937 537.75 363.611C535.439 363.38 533.185 362.598 530.95 361.996L527.992 358.895C534.087 361.393 539.773 362.404 546.371 362.234C557.881 361.938 571.648 358.639 579.756 349.913C583.084 346.331 585.642 341.102 585.427 336.179Z"/>
	<path fill="#FDFDFE" transform="scale(0.794289 0.740704)" d="M535.41 301.561C538.164 301.602 540.77 301.995 543.095 303.562C545.834 305.409 547.862 308.569 548.491 311.804C549.279 315.863 548.755 320.401 546.274 323.81C543.721 327.318 540.034 328.81 535.895 329.505C533.311 329.421 531.365 329.096 529.125 327.726C525.827 325.709 523.536 322.111 522.75 318.375C522 314.807 522.917 311.085 524.88 308.049C527.359 304.214 531.108 302.515 535.41 301.561Z"/>
	<path fill="#FDFDFE" transform="scale(0.794289 0.740704)" d="M499.138 316.694C497.324 314.798 496.055 311.371 494.812 309.021C487.417 295.033 480.778 280.154 480.34 264.052C480.059 253.753 481.378 243.034 488.871 235.243C493.149 230.795 498.892 228.838 504.971 228.742C512.346 228.625 519.563 230.858 526.394 233.442C547.069 241.264 566.323 254.581 581.592 270.507C585.389 274.468 588.8 278.677 592.161 283.007C594.399 285.892 596.596 289.082 599.224 291.609C599.787 292.151 599.835 293.648 599.985 294.444L602.917 357.221C602.961 357.682 603.018 357.471 602.735 357.852L602.136 357.547L586.653 339.863C585.724 338.78 585.658 337.55 585.427 336.179L582.02 310.875C581.108 304.53 580.385 298.195 578.498 292.05L577.876 292.158L577.756 292.441C576.61 294.64 574.08 296.131 571.688 296.508C565.173 297.534 556.737 294.73 550.471 293.04C544.533 291.438 538.365 289.802 532.263 289.001C525.749 288.147 517.853 288.666 511.547 290.548L508.496 291.235C502.854 297.934 499.057 307.917 499.138 316.694Z"/>
	<path fill="#5E4748" transform="scale(0.794289 0.740704)" d="M508.496 291.235C513.899 282.748 523.411 277.346 533.062 275.258C544.393 272.805 560.868 273.568 570.785 280.084C574.908 282.793 577.261 287.349 578.501 292.009L578.498 292.05L577.876 292.158L577.756 292.441C576.61 294.64 574.08 296.131 571.688 296.508C565.173 297.534 556.737 294.73 550.471 293.04C544.533 291.438 538.365 289.802 532.263 289.001C525.749 288.147 517.853 288.666 511.547 290.548L508.496 291.235Z"/>
	<path fill="#7E8B99" transform="scale(0.794289 0.740704)" d="M157.295 173.692C159.267 164.03 160.302 154.399 162.883 144.819C165.157 136.376 167.775 127.79 170.911 119.629C176.037 106.287 182.476 93.3865 189.171 80.7731C194.108 71.473 199.45 61.2625 206.364 53.2576C211.373 47.458 218.417 42.0265 226.317 41.4916L229.624 41.7613C265.665 47.6886 298.332 65.684 323.73 91.8655C328.559 96.843 332.603 102.327 337.087 107.577C340.885 112.024 345.572 115.854 348.982 120.583L350.109 122.127C349.823 122.112 349.519 122.182 349.252 122.08C347.185 121.291 344.616 118.676 342.75 117.379C338.229 114.236 333.483 111.504 329.134 108.099C321.674 102.257 315.651 94.4299 308.453 88.1805C298.662 79.6799 287.589 71.6847 276.132 65.6052C269.712 62.1987 262.997 59.4756 256.363 56.5297C247.896 52.7702 239.175 48.9999 230.254 46.4646C227.196 52.6259 224.931 59.7277 223.39 66.4149C222.987 69.8366 222.317 74.9951 224.392 77.914L187.013 180.887C187.106 181.75 186.171 183.713 185.888 184.592C184.266 189.623 181.309 197.038 182.344 202.371C182.789 204.664 182.693 206.459 182.106 208.718C181.795 209.915 179.88 215.496 179.018 216.229C178.521 216.651 176.742 216.536 176.105 216.568C173.732 216.687 171.404 216.926 169.077 217.42C164.852 218.317 161.133 220.562 157.425 222.672C156.476 220.436 156.6 216.856 156.422 214.399C155.712 204.641 155.396 194.996 156.053 185.218C156.311 181.39 156.504 177.453 157.295 173.692Z"/>
	<path fill="#443839" transform="scale(0.794289 0.740704)" d="M176.202 160.243L176.748 160.682C177.756 159.04 178.234 156.715 178.824 154.882C179.676 152.237 180.698 149.748 181.789 147.198L188.076 133.578C190.453 128.067 192.465 122.415 194.345 116.719L203.681 87.0926C206.071 79.5779 208.467 71.6606 212.143 64.6589C214.065 60.9984 220.164 50.8408 224.121 49.6072L182.79 180.477L182.63 180.965C181.543 184.369 181.432 187.479 181.392 191.025L178.191 180.537C178.386 180.2 178.976 179.427 179.031 179.085C179.098 178.672 178.683 177.444 178.593 177L177.342 171.253C176.65 167.83 176.385 163.728 176.202 160.243Z"/>
	<path fill="#AF9B9B" transform="scale(0.794289 0.740704)" d="M157.295 173.692C159.267 164.03 160.302 154.399 162.883 144.819C165.157 136.376 167.775 127.79 170.911 119.629C176.037 106.287 182.476 93.3865 189.171 80.7731C194.108 71.473 199.45 61.2625 206.364 53.2576C211.373 47.458 218.417 42.0265 226.317 41.4916C226.317 42.6105 226.453 43.2632 225.941 44.25L225.752 45.0019L224.121 49.6072C220.164 50.8408 214.065 60.9984 212.143 64.6589C208.467 71.6606 206.071 79.5779 203.681 87.0926L194.345 116.719C192.465 122.415 190.453 128.067 188.076 133.578L181.789 147.198C180.698 149.748 179.676 152.237 178.824 154.882C178.234 156.715 177.756 159.04 176.748 160.682L176.202 160.243C176.385 163.728 176.65 167.83 177.342 171.253L178.593 177C178.683 177.444 179.098 178.672 179.031 179.085C178.976 179.427 178.386 180.2 178.191 180.537C176.774 176.594 175.059 172.357 174.511 168.188C174.027 164.508 173.869 160.776 173.737 157.07C173.672 155.242 173.899 152.45 173.272 150.787C173.014 150.105 172.951 150.622 173.252 149.719L173.441 149.25L172.881 149.299L172.341 149.13C170.231 152.502 168.546 157.282 167.27 161.062C166.29 163.966 165.703 168.389 163.74 170.764C162.634 172.102 160.502 173.04 158.848 173.463C158.333 173.595 157.823 173.656 157.295 173.692Z"/>
	<defs>
		<linearGradient id="gradient_8" gradientUnits="userSpaceOnUse" x1="179.15033" y1="157.14929" x2="172.99149" y2="158.37117">
			<stop offset="0" stop-color="#141414"/>
			<stop offset="1" stop-color="#302121"/>
		</linearGradient>
	</defs>
	<path fill="url(#gradient_8)" transform="scale(0.794289 0.740704)" d="M172.341 149.13L172.571 148.555C173.667 145.773 174.284 142.911 174.802 139.974C175.185 137.803 175.258 132.096 176.461 130.518L176.202 160.243C176.385 163.728 176.65 167.83 177.342 171.253L178.593 177C178.683 177.444 179.098 178.672 179.031 179.085C178.976 179.427 178.386 180.2 178.191 180.537C176.774 176.594 175.059 172.357 174.511 168.188C174.027 164.508 173.869 160.776 173.737 157.07C173.672 155.242 173.899 152.45 173.272 150.787C173.014 150.105 172.951 150.622 173.252 149.719L173.441 149.25L172.881 149.299L172.341 149.13Z"/>
	<path fill="#449BC5" transform="scale(0.794289 0.740704)" d="M270.415 178.186C270.331 179.08 270.294 179.851 270.383 180.75C270.737 181.071 271.434 181.894 271.832 182.062C272.804 182.473 276.148 181.448 277.16 181.121C281.123 179.842 284.978 177.603 288.689 175.728L311.946 163.577C322.502 158.058 333.357 153.834 344.567 149.875C360.072 144.399 376.004 139.335 392.011 135.547L422.062 129.755C440.483 126.62 458.517 124.479 477.264 125.25C493.156 125.903 509.717 128.184 525.246 131.6L536.998 134.693C538.122 134.97 538.956 135.33 539.988 135.851L539.467 136.332L540.12 136.498C543.488 137.374 546.892 138.906 550.209 140.043C566.724 145.705 582.066 152.455 595.204 164.22C599.919 168.443 604.168 172.879 607.36 178.392L610.364 184.443C609.177 184.205 608.932 184.057 608.024 183.262C606.14 181.614 604.553 179.439 602.856 177.577C598.75 173.073 594.439 168.648 589.312 165.295C575.879 156.509 559.613 150.201 544.01 146.663C533.27 144.228 522.624 142.392 511.607 141.797C502.582 141.309 493.543 142.017 484.549 142.664C473.518 143.457 462.51 144.378 451.601 146.249C432.302 149.558 413.654 155.122 395.016 161.002L331.125 183.113L300.249 195.868L264.099 210.487L254.674 214.955C252.857 215.906 251.056 217.193 249.099 217.806C242.41 211.824 234.998 207.578 227.264 203.138L270.415 178.186Z"/>
	<path fill="#5E4748" transform="scale(0.794289 0.740704)" d="M173.992 452.373C174.387 452.471 175.121 452.765 175.5 452.746C176.621 452.688 178.664 451.6 179.747 451.154L189.11 447.508L209.125 440.712C219.079 437.762 229.385 436.057 239.569 434.099C241.474 433.733 243.411 433.404 245.27 432.844C246.462 432.485 248.821 431.089 249.935 431.553C254.866 433.606 260.34 432.94 265.561 432.706C260.016 437.775 253.435 441.621 247.774 446.648C236.648 456.528 227.515 467.652 218.71 479.584L204.62 499.91L187.688 528.467C185.627 531.98 183.791 536.164 181.303 539.354C180.28 538.804 178.663 538.622 177.51 538.456C173.946 537.944 170.323 537.948 166.748 537.477L154.759 535.434L120.375 527.508C113.599 525.797 106.878 523.738 100.019 522.388C102.535 517.468 106.073 512.88 109.397 508.472C124.24 488.793 142.321 472.114 163.114 458.857C166.5 456.698 170.277 453.831 173.992 452.373Z"/>
	<path fill="#BC3114" transform="scale(0.794289 0.740704)" d="M487.123 524.634C493.779 527.556 499.036 532.066 505.196 535.735L505.119 536.06C504.124 540.449 503.805 545.125 503.344 549.603L501.363 570.506L497.23 612.562L489.005 692.126L487.33 711.439C486.934 715.84 486.355 720.309 486.301 724.728C473.432 719.743 459.243 717.152 445.872 713.777L425.283 708.276L376.403 696.262C375.212 691.25 373.629 686.095 368.962 683.235C366.201 681.543 362.755 680.696 359.701 679.694C353.488 677.656 347.129 675.818 341.16 673.14C347.484 673.704 353.599 675.98 359.763 677.44L388.97 683.911L398.286 686.181C399.566 686.506 400.78 687.195 401.985 686.615L452.208 647.164L467.575 634.351C470.924 631.512 474.395 627.865 478.239 625.797L487.123 524.634Z"/>
	<path fill="#C94019" transform="scale(0.794289 0.740704)" d="M401.985 686.615L452.208 647.164L467.575 634.351C470.924 631.512 474.395 627.865 478.239 625.797L471.979 703.571L413.911 689.495L406.263 687.646C404.874 687.271 403.416 686.651 401.985 686.615Z"/>
	<path fill="#1E1920" transform="scale(0.794289 0.740704)" d="M310.595 328.222C317.658 342.481 331.7 351.837 346.444 356.849C360.935 361.774 379.57 362.928 393.591 355.922L398.245 353.4C397.449 355.594 393.423 356.759 391.358 357.888L392.156 358.031L392.561 357.733C393.286 357.227 393.996 357.015 394.688 356.441L395.25 356.533L397.273 355.284C398.041 354.841 398.538 354.884 399.396 354.885L399.522 354.879C403.681 353.103 407.501 349.885 411.417 347.603C413.468 346.408 416.751 345.591 418.51 344.207C418.82 343.963 419.281 342.882 419.507 342.493C422.333 340.867 425.364 339.939 428.5 339.115C429.599 339.593 430.509 339.616 431.702 339.647L432.189 339.656L431.625 339.941C431.152 340.266 431.239 340.464 430.594 340.659C429.306 341.048 428.477 341.899 427.315 342.48C426.733 342.772 426.156 343.024 425.603 343.371L425.252 343.594L424.688 343.875C424.228 344.175 423.995 344.515 423.469 344.777C422.657 345.183 422.301 345.341 421.809 346.132L421.443 346.736L362.059 388.351L348.375 395.564C331.722 403.492 314.192 410.183 296.509 415.424L278.807 420.286L271.145 422.002C270.045 422.211 268.577 422.209 267.711 422.958L267.517 423.039C265.561 423.353 262.937 423.026 260.939 423.021C248.667 422.986 236.814 422.028 224.857 419.103C221.303 418.234 217.793 417.518 214.498 415.877L214.5 415.5L214.457 415.007C216.092 414.214 217.928 413.797 219.609 413.07C225.277 410.617 229.749 407.112 233.119 401.896L232.888 400.995L232.891 400.967C235.695 399.166 238.327 397.942 241.486 396.901L223.655 393.109L233.812 384.638C237.419 381.341 240.59 377.726 243.888 374.133L244.333 374.174C246.847 374.124 250.552 371.926 252.906 370.823C263.107 366.042 272.354 360.098 281.565 353.657C291.505 346.707 301.411 339.162 309.314 329.894L309.73 329.723L310.595 328.222Z"/>
	<path fill="#505865" transform="scale(0.794289 0.740704)" d="M310.595 328.222C317.658 342.481 331.7 351.837 346.444 356.849C360.935 361.774 379.57 362.928 393.591 355.922L398.245 353.4C397.449 355.594 393.423 356.759 391.358 357.888L392.156 358.031L392.561 357.733C393.286 357.227 393.996 357.015 394.688 356.441L395.25 356.533L397.273 355.284C398.041 354.841 398.538 354.884 399.396 354.885C391.572 360.627 379.074 362.51 369.603 362.367C350.775 362.084 331.077 354.991 317.817 341.362C315.931 339.424 314.132 337.374 312.603 335.141C311.645 333.742 310.807 331.165 309.636 330.12L309.314 329.894L309.73 329.723L310.595 328.222Z"/>
	<path fill="#73DCFE" transform="scale(0.794289 0.740704)" d="M668.911 245.513C670.526 246.792 670.922 248.911 672.172 250.527C678.035 258.104 684.407 265.003 689.766 273L694.701 280.338C695.16 281.021 695.018 280.735 695.151 281.597L695.388 282.322C696.024 284.148 697.294 285.853 698.287 287.511L702.6 295.106C708.015 305.126 713.048 315.085 717.382 325.627C723.563 340.659 728.976 355.978 732.92 371.757C741.156 404.705 743.835 440.054 741.025 473.871C739.954 486.748 737.304 499.322 735.659 512.115C728.549 505.456 719.871 503.728 710.344 503.998L702.623 504.909L708.031 467.25L710.421 451.526C710.53 450.466 710.887 448.277 710.512 447.34C710.283 446.768 709.602 446.024 709.213 445.528L706.391 442.439C706.705 441.677 706.842 441.061 706.913 440.25C707.615 432.292 706.504 424.425 705.716 416.526C703.953 398.86 700.71 381.618 695.261 364.688C690.347 349.421 683.852 335.066 676.574 320.806L671.364 310.441C670.381 308.523 669.47 306.325 668.062 304.691L666.111 305.128C669.351 291.176 670.959 276.039 670.429 261.723C670.229 256.315 669.539 250.885 668.911 245.513Z"/>
	<path fill="#C94019" transform="scale(0.794289 0.740704)" d="M543.578 664.954C543.833 665.608 543.631 665.352 544.151 665.745L556.752 654.294L586.648 628.045L620.221 596.971L637.752 580.804C640.777 577.965 645.071 574.883 646.971 571.176C646.554 584.603 648.918 596.761 658.407 606.905C663.636 612.494 670.15 616.587 677.772 617.805L669.834 666.77L643.81 677.809C640.919 675.647 633.645 677.168 630.173 677.651C619.846 679.085 610.204 681.717 600.188 684.518C588.807 687.701 577.582 691.077 566.513 695.232L552.39 700.584L543.792 704.13C542.235 704.765 540.817 705.564 539.091 705.492L543.578 664.954Z"/>
	<path fill="#AAF5FE" transform="scale(0.794289 0.740704)" d="M666.111 305.128L668.062 304.691C669.47 306.325 670.381 308.523 671.364 310.441L676.574 320.806C683.852 335.066 690.347 349.421 695.261 364.688C700.71 381.618 703.953 398.86 705.716 416.526C706.504 424.425 707.615 432.292 706.913 440.25C706.842 441.061 706.705 441.677 706.391 442.439C703.02 439.272 699.977 435.644 696.808 432.269C694.837 430.172 692.966 428.074 690.441 426.626C688.373 428.003 686.365 429.676 684.126 430.753C678.565 433.429 671.553 434.839 665.599 436.529C656.397 439.141 647.181 441.911 638.266 445.388C627.914 449.425 617.529 453.792 607.603 458.799L584.192 471.34C582.909 470.477 581.812 468.804 580.688 467.687L572.89 460.466L545.485 438.021C554.364 435.798 563.035 432.282 571.505 428.85L597.661 417.432C600.042 416.26 602.463 414.994 604.627 413.45C605.56 412.784 607.463 410.618 608.374 410.316C609.281 410.017 610.859 410.067 611.836 409.958C615.599 409.537 620.87 409.313 623.93 406.866C623.969 405.778 623.628 404.889 623.29 403.875C624.131 402.722 627.237 402.526 628.69 402.188C631.396 401.56 634.026 400.771 636.562 399.624C638.764 398.629 640.494 397.236 642.308 395.662C639.359 394.237 636.652 392.759 634.236 390.512C629.143 385.776 625.051 379.177 620.997 373.513C618.246 369.669 615.069 365.795 612.928 361.594C621.203 360.893 628.38 358.904 635.625 354.75C653.509 344.493 661.071 323.94 666.111 305.128Z"/>
	<path fill="#443839" transform="scale(0.794289 0.740704)" d="M242.632 609.202C245.509 610.808 248.025 612.946 250.688 614.871C254.082 617.326 257.721 619.649 261.375 621.695C283.229 633.932 308.206 638.566 332.852 640.482L332.217 657.972C331.967 663.198 331.413 668.368 331.475 673.61C331.493 675.172 331.332 676.767 332.469 677.99C335.704 681.47 353.196 686.173 358.645 687.971C360.455 688.568 364.396 689.708 365.735 691.095C366.2 691.577 366.721 693.267 366.967 693.935C368.743 698.765 369.712 703.895 369.78 709.039C369.812 711.432 369.905 713.773 369.105 716.062L368.943 716.536C367.043 721.758 361.114 725.564 356.256 727.723C346.229 732.178 334.345 732.819 323.522 732.789C306.221 732.74 287.529 730.725 271.312 724.349C255.045 717.952 243.974 703.297 237.215 687.673C236.965 687.094 236.829 686.718 236.776 686.099C236.899 685.436 236.933 684.998 236.816 684.325C234.621 671.614 234.486 659.671 235.548 646.851C235.366 645.274 235.826 643.117 235.987 641.505L238.242 625.215L242.632 609.202Z"/>
	<path fill="#655755" transform="scale(0.794289 0.740704)" d="M238.242 625.215L238.558 625.548C240.851 627.904 243.407 630.789 246.189 632.521C251.436 635.787 257.632 636.857 263.49 638.497L282.278 643.97C290.221 646.354 297.874 648.771 304.708 653.637C313.472 659.878 319.346 670.655 322.128 680.821C323.383 685.406 325.392 690.63 325.75 695.341L307.214 688.978C311.169 691.802 318.352 696.532 319.44 701.438C319.144 702.834 318.525 703.54 317.302 704.285C312.662 707.112 305.016 705.683 300.031 704.265C291.995 701.978 284.366 697.811 277.452 693.188C273.697 690.677 269.847 688.12 266.406 685.183C260.91 680.493 256.174 675.067 251.642 669.465C246.713 663.371 242.013 656.948 238.238 650.062C237.71 649.1 237.21 647.506 236.155 647.018L235.548 646.851C235.366 645.274 235.826 643.117 235.987 641.505L238.242 625.215Z"/>
	<path fill="#FDFDFE" transform="scale(0.794289 0.740704)" d="M421.443 346.736C425.215 344.78 428.694 342.366 432.544 340.522C444.85 334.628 460.269 330.975 473.867 330.4C490.459 329.697 499.518 332.898 511.83 344.133C519.487 353.59 528.064 366.579 530.36 378.754C531.147 382.927 530.925 387.565 530.454 391.784C528.99 404.892 520.948 414.15 510.927 422.037C502.11 428.975 491.739 431.994 481.09 434.83C474.008 436.939 466.436 437.567 459.063 437.508C450.751 437.442 443.079 436.214 435 434.281C422.992 431.408 411.062 426.857 402.285 417.841C395.742 411.12 391.52 403.614 391.708 394.083C388.474 399.908 387.484 405.812 389.29 412.347C390.053 415.105 391.48 417.528 393.006 419.918L392.353 420.847C391.534 421.187 391.503 421.136 390.711 420.806C386.899 419.215 383.434 415.798 380.506 412.977C373.172 405.911 365.961 397.885 362.059 388.351L421.443 346.736Z"/>
	<path fill="#C75F73" transform="scale(0.794289 0.740704)" d="M465.604 412.552L466.053 412.444C468.34 411.884 470.465 411.051 472.603 410.078L473.009 410.454C476.122 413.317 481.473 416.351 485.816 416.232L487.504 416.05C486.212 419.415 484.587 422.232 481.21 423.844C477.007 425.849 470.95 426.931 466.5 425.279C461.827 423.544 458.795 419.487 456.684 415.193C458.054 414.613 459.373 414.462 460.688 413.993C461.576 413.676 461.885 413.197 462.911 413.079C463.851 412.97 464.686 412.792 465.604 412.552Z"/>
	<path fill="#BCB9BD" transform="scale(0.794289 0.740704)" d="M391.708 394.083C393.365 389.906 400.179 384.619 403.941 382.12C401.182 389.482 401.539 397.184 404.789 404.355C410.412 416.763 423.319 422.732 435.375 427.287C444.484 430.729 454.914 432.732 464.56 433.795C467.412 434.109 470.153 434.291 473.022 434.282C475.684 434.274 478.616 433.783 481.09 434.83C474.008 436.939 466.436 437.567 459.063 437.508C450.751 437.442 443.079 436.214 435 434.281C422.992 431.408 411.062 426.857 402.285 417.841C395.742 411.12 391.52 403.614 391.708 394.083Z"/>
	<path transform="scale(0.794289 0.740704)" d="M459.078 409.387C462.621 409.589 465.128 409.567 467.928 407.026C470.737 404.479 472.462 401.185 473.957 397.752C465.827 394.6 458.496 390.968 454.812 382.489C452.917 378.127 451.924 372.047 453.826 367.522C455.028 364.663 457.275 362.695 460.164 361.655C470.208 358.038 491.393 362.321 500.646 366.95C504.052 368.654 507.834 371.053 509.115 374.856C510.258 378.252 508.776 381.745 507.176 384.737C503.655 391.32 498.426 395.797 491.249 397.98C488.86 398.707 486.454 399.14 483.954 398.978C482.574 398.888 480.917 398.502 479.578 398.722C479.202 398.784 479.203 398.755 479.039 399.083C478.194 400.776 478.695 402.647 479.392 404.277C480.424 406.694 482.752 409.837 485.239 410.92C486.216 411.345 487.402 411.395 488.438 411.662C488.805 413.144 488.106 414.678 487.504 416.05L485.816 416.232C481.473 416.351 476.122 413.317 473.009 410.454L472.603 410.078C470.465 411.051 468.34 411.884 466.053 412.444L465.604 412.552C464.686 412.792 463.851 412.97 462.911 413.079C461.885 413.197 461.576 413.676 460.688 413.993C459.373 414.462 458.054 414.613 456.684 415.193C455.857 413.154 455.476 411.527 455.707 409.312C456.791 408.818 457.912 409.223 459.078 409.387Z"/>
	<path fill="#AC283D" transform="scale(0.794289 0.740704)" d="M456.684 415.193C455.857 413.154 455.476 411.527 455.707 409.312C456.791 408.818 457.912 409.223 459.078 409.387L457.312 409.398L457.03 409.877C457.764 410.579 459.37 412.205 460.327 412.43C461.774 412.772 464.09 412.578 465.604 412.552C464.686 412.792 463.851 412.97 462.911 413.079C461.885 413.197 461.576 413.676 460.688 413.993C459.373 414.462 458.054 414.613 456.684 415.193Z"/>
	<path fill="#443839" transform="scale(0.794289 0.740704)" d="M496.007 377.097L503.233 376.913C498.326 378.405 493.989 379.057 488.869 379.279L482.626 378.814C484.093 378.173 485.832 378.177 487.411 378.02L496.007 377.097Z"/>
	<path fill="#FDFDFE" transform="scale(0.794289 0.740704)" d="M465.423 367.312L466.788 367.032C471.267 366.457 477.531 368.874 481.038 371.625L480.938 372.158L479.075 373.275C476.723 373.567 474.481 373.832 472.106 373.636C469.409 373.413 466.436 372.708 464.714 370.411C464.052 369.529 463.78 369.04 463.962 367.978L465.423 367.312Z"/>
	<path fill="#FF8B38" transform="scale(0.794289 0.740704)" d="M621.453 487.366C622.993 487.365 629.907 483.821 631.774 482.999L673.938 464.551L681.437 461.196C682.419 460.75 683.691 459.95 684.773 460.049L686.072 461.946L686.579 462.434C687.242 464.848 686.736 467.271 686.437 469.711L685.279 478.814L680.005 512.083C678.718 518.53 676.775 525.012 676.111 531.545L675.624 531.762C664.019 537.036 654.081 548.568 649.705 560.442C648.41 563.956 647.59 567.492 646.971 571.176C645.071 574.883 640.777 577.965 637.752 580.804L620.221 596.971L586.648 628.045L556.752 654.294L544.151 665.745C543.631 665.352 543.833 665.608 543.578 664.954L557.07 534.604L551.789 534.088L551.943 533.734L551.965 532.585C552.742 525.023 596.426 500.88 604.926 496.291L613.978 491.514C616.529 490.246 619.234 489.185 621.453 487.366Z"/>
	<path transform="scale(0.794289 0.740704)" d="M621.453 487.366C622.993 487.365 629.907 483.821 631.774 482.999L673.938 464.551L681.437 461.196C682.419 460.75 683.691 459.95 684.773 460.049L686.072 461.946C685.582 461.871 684.643 461.59 684.188 461.658C682.415 461.919 679.892 463.48 678.262 464.256L668.822 468.404L639.294 481.767C612.879 493.79 586.292 506.991 562.841 524.255L552.691 533.106C552.253 533.557 552.459 533.377 551.943 533.734L551.965 532.585C552.742 525.023 596.426 500.88 604.926 496.291L613.978 491.514C616.529 490.246 619.234 489.185 621.453 487.366Z"/>
	<defs>
		<linearGradient id="gradient_9" gradientUnits="userSpaceOnUse" x1="232.18207" y1="631.31531" x2="91.57354" y2="677.29071">
			<stop offset="0" stop-color="#3B3336"/>
			<stop offset="1" stop-color="#5A413B"/>
		</linearGradient>
	</defs>
	<path fill="url(#gradient_9)" transform="scale(0.794289 0.740704)" d="M127.791 687.435C129.638 687.898 131.911 689.718 133.559 690.724L143.739 696.547C160.802 705.751 178.835 711.24 198.062 713.34C195.782 708.284 192.079 704.148 189.188 699.442C184.347 691.562 180.619 682.454 177.583 673.722C175.122 666.647 173.627 659.13 172.444 651.75C169.195 631.484 169.438 610.368 173.88 590.258C176.625 577.831 181.205 565.391 186.288 553.744C188.887 547.788 192.937 542.668 195.694 536.858L195.85 536.521C197.007 551.666 202.733 566.213 210.89 578.949C213.32 582.743 216.924 586.468 218.51 590.663L218.634 591L219.346 591.023L219.944 590.229C222.846 593.192 225.77 596.261 228.949 598.93C233.324 602.602 238.035 605.823 242.632 609.202L238.242 625.215L235.987 641.505C235.826 643.117 235.366 645.274 235.548 646.851C234.486 659.671 234.621 671.614 236.816 684.325C236.933 684.998 236.899 685.436 236.776 686.099L230.44 670.102L229.698 670.111L229.696 670.424C229.871 675.149 231.522 680.445 232.896 684.947C236.566 696.972 241.26 710.221 250.284 719.313C252.397 721.442 254.492 723.294 257.058 724.858C258.838 725.943 261.322 726.928 262.787 728.359C241.043 726.641 218.897 724.348 197.627 719.38C188.046 717.142 178.435 713.977 169.166 710.691C158.108 706.77 147.63 702.415 137.413 696.608C113.907 683.247 93.5914 665.324 81.2282 640.972C79.0884 636.757 76.695 632.303 75.4388 627.744L76.774 627.505C75.9352 626.274 75.585 624.658 75.1401 623.246C77.611 622.119 83.2082 622.59 86.1278 622.335C106.939 620.515 128.282 618.379 148.524 613.117L162.267 607.911C161.118 616.894 160.565 626.266 160.928 635.329L161.374 644.812C161.518 646.631 161.903 648.437 161.813 650.263L163.995 660.922C158.149 667.213 152.217 673.944 144.838 678.467C141.337 680.613 137.581 682.397 133.825 684.05C131.969 684.867 128.722 685.432 127.362 686.802L127.791 687.435Z"/>
	<path transform="scale(0.794289 0.740704)" d="M179.802 640.913C180.54 642.84 180.339 644.995 180.366 647.036C180.403 649.906 180.506 652.718 180.915 655.564C182.655 667.673 186.852 679.232 191.908 690.318C194.098 695.12 196.682 699.712 199.53 704.151C200.35 705.429 203.802 709.459 203.812 710.687L202.312 710.288C197.666 708.206 193.819 701.271 191.455 696.932C187.102 688.938 183.639 680.395 180.917 671.714C179.246 666.387 177.766 661.124 177.597 655.5C177.444 650.405 178.358 645.771 179.802 640.913Z"/>
	<defs>
		<linearGradient id="gradient_10" gradientUnits="userSpaceOnUse" x1="245.04288" y1="605.63007" x2="210.58212" y2="667.49493">
			<stop offset="0" stop-color="#B38C74"/>
			<stop offset="1" stop-color="#DAA175"/>
		</linearGradient>
	</defs>
	<path fill="url(#gradient_10)" transform="scale(0.794289 0.740704)" d="M219.346 591.023L219.944 590.229C222.846 593.192 225.77 596.261 228.949 598.93C233.324 602.602 238.035 605.823 242.632 609.202L238.242 625.215L235.987 641.505C235.826 643.117 235.366 645.274 235.548 646.851C234.486 659.671 234.621 671.614 236.816 684.325C236.933 684.998 236.899 685.436 236.776 686.099L230.44 670.102C230.472 669.54 229.867 668.225 229.664 667.612L227.138 660.315C224.557 652.752 222.399 645.255 220.858 637.404C217.796 621.808 218.411 606.771 219.346 591.023Z"/>
	<path fill="#1E1920" transform="scale(0.794289 0.740704)" d="M148.524 613.117L162.267 607.911C161.118 616.894 160.565 626.266 160.928 635.329L161.374 644.812C161.518 646.631 161.903 648.437 161.813 650.263C156.728 653.401 151.723 655.077 146.13 657.05C132.82 661.745 118.354 665.435 104.286 666.879C101.683 664.737 99.5133 662.231 97.2775 659.722C93.2749 654.129 88.6368 649.045 84.8311 643.28C81.5359 638.289 79.2027 632.924 76.774 627.505C75.9352 626.274 75.585 624.658 75.1401 623.246C77.611 622.119 83.2082 622.59 86.1278 622.335C106.939 620.515 128.282 618.379 148.524 613.117Z"/>
	<path fill="#6F6667" transform="scale(0.794289 0.740704)" d="M305.693 424.029C306.973 423.644 309.645 423.398 310.872 424.023L311.392 424.352C312.832 425.145 315.085 426.355 316.69 426.691C318.605 427.092 320.494 426.82 322.356 427.556C323.129 427.862 323.979 427.883 324.8 427.958L317.171 429.503C316.155 432.258 316.512 435.945 316.488 438.858L316.385 453.884L316.108 503.29C290.095 495.628 262.776 498.437 238.892 511.323C237.683 511.975 236.279 512.66 235.307 513.624C260.818 503.519 292.049 502.113 317.618 513.1C328.633 517.833 338.259 524.501 345.759 533.969C343.586 534.125 341.277 534.182 339.155 534.693C330.617 536.748 320.357 542.107 314.384 548.654C317.475 546.924 320.344 544.769 323.64 543.435C337.269 537.92 355.234 538.532 369.193 542.467C379.735 545.439 387.516 550.531 394.567 558.82C396.098 560.618 398.021 562.739 399.188 564.779L399.525 565.451C391.801 561.876 382.132 555.846 373.327 559.254C371.407 559.997 369.12 561.433 368.334 563.44C368.154 563.899 368.321 564.156 368.438 564.606C369.167 564.785 369.712 564.878 370.462 564.815C372.545 567.42 375.761 568.14 378.7 569.438C381.377 570.619 384.307 572.203 386.459 574.211C387.094 574.803 388.22 575.688 388.555 576.459L388.552 577.05C388.556 577.631 388.63 578.155 388.729 578.725C389.567 583.558 388.911 588.447 386.05 592.543C384.219 595.164 381.696 597.268 378.926 598.826C376.606 597.739 374.151 596.308 371.568 596.154C369.887 595.289 368.484 594.556 366.562 594.363L366.041 594.75C366.323 596.173 369.209 600.57 369.008 601.493C368.833 602.294 367.629 603.967 367.141 604.688C365.152 607.631 362.056 610.13 358.991 611.876L358.906 611.848L356.812 612.267C348.663 613.205 338.758 610.441 330.9 608.29C319.485 605.166 308.576 601.091 297.501 596.996L264.676 584.648C254.312 580.579 244.015 576.912 233.976 572.024C229.825 570.002 225.226 567.779 221.584 564.944L221.101 564.562C216.706 561.186 213.875 556.977 211.852 551.845C210.472 547.301 209.695 541.874 209.655 537.127C209.637 534.988 210.374 531.681 209.367 529.807C209.174 528.508 210.198 526.049 210.627 524.727C215.492 509.745 226.432 498.857 235.35 486.303L253.109 460.743L259.244 452.899C260.192 451.652 261.241 450.63 261.351 449.016C264.962 445.958 269.115 443.306 273.072 440.721C279.919 436.25 287.919 431.543 295.822 429.182L303.052 426.217C304.448 425.68 306.071 425.232 307.254 424.312L305.693 424.029Z"/>
	<path fill="#AF9B9B" transform="scale(0.794289 0.740704)" d="M305.693 424.029C306.973 423.644 309.645 423.398 310.872 424.023L311.392 424.352C312.832 425.145 315.085 426.355 316.69 426.691C318.605 427.092 320.494 426.82 322.356 427.556C323.129 427.862 323.979 427.883 324.8 427.958L317.171 429.503C315.632 429.304 313.884 429.912 312.375 430.226L304.5 431.657L304.219 431.344L305.25 431.25C305.621 431.168 305.979 431.031 306.354 430.969L310.688 430.125L313.23 429.457L314.625 429.188L315.562 429C316.479 428.654 315.753 428.716 316.682 428.684C317.729 428.648 318.541 428.761 319.5 428.25C318.917 427.654 317.142 427.733 316.32 427.53C315.757 427.391 315.555 427.261 314.962 427.391C313.881 427.629 313.301 427.754 312.218 427.432L311.813 427.304C310.718 426.983 310.19 426.789 309.428 425.871L309.938 425.625C309.709 425.334 309.607 424.852 309.251 424.752C309.191 424.735 307.881 425.199 307.753 425.24L301.181 427.647C299.444 428.361 297.747 429.42 295.822 429.182L303.052 426.217C304.448 425.68 306.071 425.232 307.254 424.312L305.693 424.029Z"/>
	<path fill="#FF8B38" transform="scale(0.794289 0.740704)" d="M385.58 631.946C390.965 629.23 396.177 625.999 400.514 621.774C408.355 614.135 413.463 603.441 413.574 592.404C413.619 587.994 412.669 583.768 411.755 579.478C409.156 567.284 405.504 556.759 396.471 547.779C385.256 536.629 368.639 532.354 353.233 532.478C350.266 526.19 345.245 521.199 340.341 516.41C341.407 508.846 341.133 500.589 341.22 492.945L341.683 458.866L487.123 524.634L478.239 625.797C474.395 627.865 470.924 631.512 467.575 634.351L452.208 647.164L401.985 686.615C400.78 687.195 399.566 686.506 398.286 686.181L388.97 683.911L359.763 677.44C353.599 675.98 347.484 673.704 341.16 673.14L339.885 672.562C339.334 671.155 339.695 669.134 339.773 667.609L340.843 654.076C352.65 647.753 365.41 643.278 377.303 637.083C380.13 635.61 383.483 634.418 385.58 631.946Z"/>
	<defs>
		<linearGradient id="gradient_11" gradientUnits="userSpaceOnUse" x1="29.422533" y1="390.53574" x2="207.23436" y2="431.78992">
			<stop offset="0" stop-color="#71DAFD"/>
			<stop offset="1" stop-color="#ABFAFE"/>
		</linearGradient>
	</defs>
	<path fill="url(#gradient_11)" transform="scale(0.794289 0.740704)" d="M75.4839 265.868L75.4766 265.812C76.6025 263.18 78.8443 260.731 80.5034 258.375C91.5008 242.755 104.473 228.175 117.749 214.463C127.022 204.885 136.413 195.457 147.285 187.666C146.589 197.677 147.187 208.197 148.589 218.122C148.996 221.001 149.885 223.823 150.252 226.682L149.885 226.993C134.067 240.696 129.378 261.564 128.061 281.625C126.48 305.723 130.939 332.032 147.326 350.657C151.098 354.945 155.417 358.87 160.441 361.644C162.76 362.924 165.286 363.804 167.599 365.087C171.716 367.372 175.478 370.018 179.812 371.954C181.754 372.821 183.736 373.536 185.77 374.152C186.673 374.426 188.381 374.719 189.112 375.236C190.759 376.401 192.673 379.545 194.062 381.163C199.254 387.209 207.648 394.41 215.932 394.898L217.587 394.961C213.031 401.371 207.68 408.007 200.625 411.765C199.007 412.627 193.889 414.46 193.071 415.789C198.611 418.891 203.976 420.781 210.331 421.355C205.298 423.799 199.956 425.147 194.662 426.908C186.563 429.603 178.454 432.468 170.637 435.903C132.152 452.814 96.1739 482.512 76.9667 520.352C73.8268 526.537 71.3602 533.2 69.0934 539.752C63.6467 555.493 60.5168 572.706 60.7712 589.421C60.5181 590.595 60.2671 591.668 60.2831 592.875C60.2932 593.636 60.3048 594.243 60.4335 595.003C60.6166 596.083 60.4676 597.273 60.8204 598.306C61.1981 599.413 60.9842 600.811 61.3163 602.062L61.4348 603.186L61.5704 603.533C61.9604 604.675 61.5608 605.695 62.0662 606.938C62.6001 608.25 62.4516 609.736 63.0198 611.156C63.2711 611.785 63.2031 612.29 63.3098 612.936L63.5663 613.688L63.9098 615.244C64.0235 615.838 64.1447 616.148 64.3838 616.675C64.7548 617.493 64.6579 618.077 64.8098 618.936C65.0176 620.112 65.7383 621.784 66.1912 622.875L66.574 624.401C66.7302 625.101 66.6301 624.72 66.9412 625.5C67.243 626.256 67.1997 625.919 67.1462 626.608L66.375 627.188L66.2122 626.672C66.0339 626.137 65.8508 625.807 65.6048 625.318C64.4759 623.072 63.6727 620.616 62.436 618.431C61.7738 617.262 61.4467 615.975 60.75 614.812C60.3137 614.085 60.4862 614.465 60.263 613.719C59.3377 610.628 57.213 607.55 56.4898 604.409L55.9814 604.855L55.3218 603.609C47.4513 585.574 41.3624 566.357 36.6105 547.281C22.867 492.108 20.7714 433.23 32.0387 377.407C35.7052 359.243 41.4868 341.001 47.8091 323.612C52.6927 310.181 58.5744 296.911 65.2084 284.253L71.2625 273.509C72.6672 271.158 74.4107 268.722 75.38 266.159L75.4839 265.868Z"/>
	<path fill="#6F6667" transform="scale(0.794289 0.740704)" d="M268.697 254.553C271.761 249.231 277.577 245.012 281.856 240.643C287.806 234.569 293.33 228.105 299.743 222.495C302.793 219.827 306.125 217.485 309.565 215.35C317.025 210.719 325.187 206.627 333.346 203.391C354.157 195.135 376.469 189.585 398.25 184.527C420.515 179.356 442.787 174.88 465.528 172.351C473.501 171.464 481.435 170.606 489.465 170.43C500.193 170.194 512.13 171.287 522.579 173.77C540.575 178.046 556.374 187.137 570.612 198.736L574.798 202.095C575.291 202.484 576.41 203.142 576.751 203.632C577.36 204.507 577.79 206.1 578.224 207.14C579.958 211.295 581.214 216.526 583.632 220.268L583.977 220.782C591.291 238.927 595.704 258.924 598.536 278.25C599.274 283.281 600.435 289.38 599.985 294.444C599.835 293.648 599.787 292.151 599.224 291.609C596.596 289.082 594.399 285.892 592.161 283.007C588.8 278.677 585.389 274.468 581.592 270.507C566.323 254.581 547.069 241.264 526.394 233.442C519.563 230.858 512.346 228.625 504.971 228.742C498.892 228.838 493.149 230.795 488.871 235.243C481.378 243.034 480.059 253.753 480.34 264.052C480.778 280.154 487.417 295.033 494.812 309.021C496.055 311.371 497.324 314.798 499.138 316.694C500.138 323.65 505.153 331.026 508.552 337.125C509.729 339.237 511.582 341.719 511.83 344.133C499.518 332.898 490.459 329.697 473.867 330.4C460.269 330.975 444.85 334.628 432.544 340.522C428.694 342.366 425.215 344.78 421.443 346.736L421.809 346.132C422.301 345.341 422.657 345.183 423.469 344.777C423.995 344.515 424.228 344.175 424.688 343.875L425.252 343.594L425.603 343.371C426.156 343.024 426.733 342.772 427.315 342.48C428.477 341.899 429.306 341.048 430.594 340.659C431.239 340.464 431.152 340.266 431.625 339.941L432.189 339.656L431.702 339.647C430.509 339.616 429.599 339.593 428.5 339.115C425.364 339.939 422.333 340.867 419.507 342.493C419.281 342.882 418.82 343.963 418.51 344.207C416.751 345.591 413.468 346.408 411.417 347.603C407.501 349.885 403.681 353.103 399.522 354.879L399.396 354.885C398.538 354.884 398.041 354.841 397.273 355.284L395.25 356.533L394.688 356.441C393.996 357.015 393.286 357.227 392.561 357.733L392.156 358.031L391.358 357.888C393.423 356.759 397.449 355.594 398.245 353.4L393.591 355.922C379.57 362.928 360.935 361.774 346.444 356.849C331.7 351.837 317.658 342.481 310.595 328.222L309.73 329.723L309.418 329.497C306.591 327.618 304.136 324.648 301.835 322.151L287.21 305.173C284.523 301.946 281.343 297.092 277.471 295.336L276.188 295.819L275.634 300.082C275.357 296.206 275.574 292.291 275.249 288.388C274.313 277.167 271.963 265.325 268.697 254.553Z"/>
	<path fill="#FDFDFE" transform="scale(0.794289 0.740704)" d="M277.471 295.336C291.249 285.826 303.554 274.379 317.235 264.695C331.91 254.308 348.086 245.41 364.817 238.819C373.994 235.204 383.453 232.121 393.197 230.5C398.887 229.553 405.004 228.817 410.72 229.893C417.11 231.097 422.075 234.41 425.716 239.786C433.999 252.012 435.729 269.018 432.867 283.264C430.939 292.867 427.811 301.986 423.294 310.682C421.874 313.418 420.396 316.364 418.578 318.858C414.866 331.905 409.693 345.291 398.245 353.4L393.591 355.922C379.57 362.928 360.935 361.774 346.444 356.849C331.7 351.837 317.658 342.481 310.595 328.222L309.73 329.723L309.418 329.497C306.591 327.618 304.136 324.648 301.835 322.151L287.21 305.173C284.523 301.946 281.343 297.092 277.471 295.336Z"/>
	<path fill="#5E4748" transform="scale(0.794289 0.740704)" d="M324.083 287.648C326.004 282.071 330.07 277.845 335.315 275.285C350.329 267.958 367.245 268.192 382.756 273.644C392.247 276.981 402.738 283.896 408.383 292.351C405.93 292.485 404.429 291.478 402.264 290.554C399.858 289.528 397.417 288.595 394.921 287.809C389.723 286.172 383.833 285.233 378.381 285.487C372.158 285.778 366.008 287.671 360.133 289.637C351.237 292.613 339.448 298.635 330.067 294.785C327.902 293.896 325.838 291.689 324.949 289.54L324.083 287.648Z"/>
	<path transform="scale(0.794289 0.740704)" d="M324.083 287.648L324.949 289.54C325.838 291.689 327.902 293.896 330.067 294.785C339.448 298.635 351.237 292.613 360.133 289.637C366.008 287.671 372.158 285.778 378.381 285.487C383.833 285.233 389.723 286.172 394.921 287.809C397.417 288.595 399.858 289.528 402.264 290.554C404.429 291.478 405.93 292.485 408.383 292.351C414.244 300.409 417.631 308.939 418.578 318.858C414.866 331.905 409.693 345.291 398.245 353.4L393.591 355.922C379.57 362.928 360.935 361.774 346.444 356.849C331.7 351.837 317.658 342.481 310.595 328.222C312.335 324.509 313.39 320.47 314.629 316.57C317.691 306.926 320.29 297.029 324.083 287.648Z"/>
	<path fill="#FDFDFE" transform="scale(0.794289 0.740704)" d="M384.459 300.885C386.639 301.038 388.768 301.364 390.726 302.395C394.218 304.234 396.99 307.929 398.023 311.71C399.046 315.458 398.458 319.378 396.457 322.702C394.125 326.578 391.264 328.84 386.843 329.88C384.502 330.077 382.331 329.583 380.323 328.379C376.427 326.043 373.863 321.792 372.918 317.422C372.123 313.749 373.065 309.682 375.18 306.607C377.644 303.025 380.334 301.658 384.459 300.885Z"/>
</svg>
