<?xml version="1.0" encoding="utf-8" ?>
<svg xmlns="http://www.w3.org/2000/svg" xmlns:xlink="http://www.w3.org/1999/xlink" width="72" height="73">
	<path fill="#E94F37" transform="scale(0.0950521 0.0962445)" d="M-0 -0L768 0L768 768L-0 768L0 -0Z"/>
	<path fill="#D1CECF" transform="scale(0.0950521 0.0962445)" d="M565.456 352.78C567.996 352.577 570.404 354.029 572.272 355.639C574.99 357.98 576.506 361.49 576.642 365.045C576.781 368.673 574.82 373.04 572.313 375.65L568.548 375.899L568.146 376.448C567.791 376.368 567.407 376.107 567.082 375.938C567.575 374.623 567.394 374.165 567.164 372.809L567.647 372.986C569.738 371.429 572.356 369.696 573.394 367.195C574.44 364.676 574.038 361.9 573.037 359.438C571.65 356.023 568.696 354.152 565.456 352.78Z"/>
	<path fill="#D1CECF" transform="scale(0.0950521 0.0962445)" d="M197.278 405.514C196.685 405.318 196.927 405.338 196.34 405.36C194.48 405.43 192.815 405.309 191.145 404.391C187.542 402.412 185.618 397.661 184.676 393.853C183.689 389.869 184.023 386.217 186.295 382.743C187.886 380.31 189.699 378.453 192.637 377.866C189.741 380.892 188.201 383.601 188.347 387.982C188.49 392.249 190.333 396.233 193.468 399.147C194.626 400.223 195.947 401.165 197.476 401.621L196.969 402.375L197.889 403.688C197.764 404.359 197.806 405.062 197.278 405.514Z"/>
	<path fill="#D1CECF" transform="scale(0.0950521 0.0962445)" d="M192.758 623.276C197.032 632.589 200.483 641.948 210.382 646.718L210.76 646.904C214.481 648.702 219.08 649.537 223.094 650.401C225.478 650.914 227.355 651.154 229.5 652.335C229.897 652.554 230.626 652.514 231.039 652.641L231.371 652.845C221.621 652.753 209.826 654.331 202.191 647.013C196.158 641.229 192.926 631.45 192.758 623.276Z"/>
	<path fill="#393E41" transform="scale(0.0950521 0.0962445)" d="M552.312 356.132C556.76 352.561 559.94 352.233 565.456 352.78C568.696 354.152 571.65 356.023 573.037 359.438C574.038 361.9 574.44 364.676 573.394 367.195C572.356 369.696 569.738 371.429 567.647 372.986L567.164 372.809C566.763 371.12 566.219 369.46 565.511 367.875C562.784 361.77 558.43 358.496 552.312 356.132Z"/>
	<path fill="#F6F7EB" transform="scale(0.0950521 0.0962445)" d="M404.723 47.5113L405.318 47.6016C411.489 48.4797 418.392 48.0534 424.639 48.1322L424.516 61.4338L404.788 61.532L404.723 47.5113Z"/>
	<defs>
		<linearGradient id="gradient_0" gradientUnits="userSpaceOnUse" x1="208.8065" y1="597.40747" x2="233.16971" y2="640.22888">
			<stop offset="0" stop-color="#D3D3D4"/>
			<stop offset="1" stop-color="white"/>
		</linearGradient>
	</defs>
	<path fill="url(#gradient_0)" transform="scale(0.0950521 0.0962445)" d="M208.543 611.716L208.369 604.722C210.578 604.788 214.073 605.321 216.103 604.603L216.263 604.219C216.679 602.873 216.622 600.723 215.985 599.438C215.374 598.203 213.942 596.929 212.606 596.597C211.718 596.377 212.385 596.69 211.616 596.25C214.067 595.039 216.644 593.665 219.433 593.766L217.542 594.938C217.929 595.607 218.182 595.784 218.756 596.281C221.083 598.293 221.369 600.032 221.53 602.972C221.684 605.773 221.77 608.78 220.17 611.197C225.019 613.668 227.461 617.703 229.132 622.738C231.137 628.783 231.747 635.546 231.834 641.882C228.049 641.227 224.012 640.613 220.485 639.098C219.833 633.658 221.014 627.054 219.251 621.916C218.168 618.758 215.926 616.449 213.404 614.389C212.541 614.501 209.428 612.284 208.543 611.716Z"/>
	<path fill="#F6F7EB" transform="scale(0.0950521 0.0962445)" d="M376.817 62.9253L361.399 63.1397L361.561 46.725L400.874 46.9274L400.988 62.493L385.452 62.8187L376.817 62.9253Z"/>
	<path fill="#393E41" transform="scale(0.0950521 0.0962445)" d="M183.222 199.18C184.811 197.126 187.859 196.424 190.347 196.159C197.471 195.403 204.97 197.439 210.514 202.028C216.533 207.01 219.512 215.384 220.051 222.964C220.504 229.348 218.911 236.026 214.758 241.019L209.986 245.823C210.816 247.868 210.431 250.877 210.438 253.113L210.439 268.749L210.12 347.637L210.008 372.636C210.011 376.139 209.62 380.277 210.211 383.709C210.453 385.118 211.014 385.755 212.293 386.324L213.417 386.772C207.393 388.777 202.347 391.62 199.328 397.505C198.747 398.64 198.395 399.854 198.052 401.077L197.476 401.621C195.947 401.165 194.626 400.223 193.468 399.147C190.333 396.233 188.49 392.249 188.347 387.982C188.201 383.601 189.741 380.892 192.637 377.866L194.082 377.452L196.312 376.905C200.446 376.314 203.564 377.99 206.7 380.434C205.698 368.055 206.434 355.094 206.444 342.663L206.454 272.221L206.409 254.196C206.392 251.76 206.789 248.498 205.852 246.226C206.42 245.669 207.078 245.222 207.715 244.747L209.793 242.699C210.729 241.861 211.55 240.937 212.324 239.948C216.532 234.567 217.49 227.346 216.587 220.723C215.682 214.074 212.079 208.304 206.723 204.347C200.939 200.074 193.419 197.619 186.225 198.665L183.222 199.18Z"/>
	<defs>
		<linearGradient id="gradient_1" gradientUnits="userSpaceOnUse" x1="211.53699" y1="209.04097" x2="173.0374" y2="238.36102">
			<stop offset="0" stop-color="#9193A2"/>
			<stop offset="1" stop-color="#D8D6D8"/>
		</linearGradient>
	</defs>
	<path fill="url(#gradient_1)" transform="scale(0.0950521 0.0962445)" d="M186.225 198.665C193.419 197.619 200.939 200.074 206.723 204.347C212.079 208.304 215.682 214.074 216.587 220.723C217.49 227.346 216.532 234.567 212.324 239.948C211.55 240.937 210.729 241.861 209.793 242.699L207.715 244.747C207.078 245.222 206.42 245.669 205.852 246.226C200.541 249.456 193.847 249.565 187.875 248.273C181.844 246.968 176.206 243.252 172.875 238.025C168.813 231.652 167.639 223.528 169.258 216.196C171.116 207.788 176.298 203.469 183.222 199.18L186.225 198.665Z"/>
	<path fill="#393E41" transform="scale(0.0950521 0.0962445)" d="M182.206 207.582C187.48 204.364 193.45 202.432 199.641 203.992C204.909 205.319 210.114 209.659 212.86 214.312C215.64 219.023 216.35 224.332 215.446 229.703L215.346 230.325C214.668 234.268 212.63 237.286 209.945 240.12C205.937 243.828 201.371 245.485 195.927 245.39C189.677 245.28 184.519 242.745 180.274 238.219C176.559 234.257 174.64 228.705 174.869 223.29C175.151 216.625 177.352 212.084 182.206 207.582Z"/>
	<path fill="#636873" transform="scale(0.0950521 0.0962445)" d="M196.139 210.795C198.628 210.67 201.101 210.553 203.461 211.482C206.441 212.655 209.047 214.817 210.32 217.816L210.476 218.203C211.313 220.256 211.37 222.935 210.904 225.094L210.798 225.562C210.51 226.946 210.184 228.184 209.577 229.474C207.956 232.914 205.521 234.481 202.136 235.787C198.916 236.103 195.853 235.91 192.938 234.34C190.118 232.821 188.196 229.611 187.346 226.611C186.388 223.226 186.47 218.884 188.353 215.812C190.171 212.846 192.942 211.653 196.139 210.795Z"/>
	<path fill="#393E41" transform="scale(0.0950521 0.0962445)" d="M365.953 292.424L400.158 292.273C400.762 292.371 401.741 292.39 402.281 292.617C402.823 292.844 403.668 293.826 404.179 294.217C407.316 296.618 410.293 298.883 412.651 302.116C417.546 308.831 419.256 317.316 419.347 325.477L350.178 325.452L350.284 321.644C350.764 313.357 353.888 304.953 359.317 298.642C361.304 296.333 363.672 294.429 365.953 292.424Z"/>
	<path fill="#393E41" transform="scale(0.0950521 0.0962445)" d="M234.72 389.995C235.175 388.591 236.754 386.902 237.677 385.729C240.795 381.768 244.039 377.778 247.589 374.192C248.54 373.232 250.449 371.126 251.713 370.727C253.486 370.168 256.72 370.564 258.598 370.558L277.62 370.517L277.504 431.874C274.373 431.521 271.077 431.702 267.924 431.694L253.223 431.785L239.546 418.984C242.564 413.95 243.675 409.255 242.974 403.389C242.372 398.345 238.61 393.073 234.72 389.995Z"/>
	<path fill="#393E41" transform="scale(0.0950521 0.0962445)" d="M485.952 355.39L506.181 355.494C507.934 355.506 511.222 355.154 512.863 355.678C513.523 355.889 514.558 356.759 515.139 357.171C517.904 359.131 520.406 361.563 522.789 363.969C523.723 364.912 524.534 365.828 525.273 366.933C522.562 372.565 521.66 378.77 523.754 384.787C525.187 388.904 527.984 393.381 531.449 396.098L532.687 397.014C532.689 397.831 532.673 398.592 532.548 399.4L523.037 409.419C520.975 411.649 518.956 414.084 516.6 416L495.138 415.985C492.553 415.987 488.858 415.583 486.377 416.108L486.439 374.721C486.452 368.547 487.127 361.432 485.952 355.39Z"/>
	<path fill="#393E41" transform="scale(0.0950521 0.0962445)" d="M463.079 528.149C462.049 537.655 462.563 547.781 462.511 557.368L462.747 621.444L426.342 621.612L426.683 551.331C440.218 545.849 451.578 536.933 463.079 528.149Z"/>
	<path fill="#393E41" transform="scale(0.0950521 0.0962445)" d="M305.123 530.172C315.869 538.529 328.347 545.479 340.9 550.72L341.237 621.375L304.436 621.307L305.123 530.172Z"/>
	<path fill="#393E41" transform="scale(0.0950521 0.0962445)" d="M519.629 707.633L588.643 707.595C592.897 707.582 596.739 705.839 600.938 706.023C603.039 706.115 605.078 706.987 606.572 708.465C608.271 710.147 609.073 712.491 609.03 714.855C608.981 717.465 607.71 719.97 605.851 721.779C603.729 723.843 601.427 723.479 598.675 723.432L495.699 722.885L291.718 723.015L209.193 722.717L180.494 722.661C175.753 722.649 170.834 722.908 166.12 722.582C163.728 722.416 161.813 721.536 160.251 719.675C158.876 718.037 158.173 716.031 158.404 713.894C158.689 711.252 159.774 708.998 161.925 707.386C163.981 705.846 166.751 705.2 169.286 705.725C171.516 706.187 173.409 707.34 175.741 707.549C182.176 708.126 189.042 707.693 195.514 707.687L234.179 707.632L245.808 707.622C247.505 707.621 249.81 707.346 251.294 708.181C255.069 708.757 259.211 708.413 263.05 708.401L285.367 708.308L362.683 708.095L381.854 708.102L494.177 707.759L519.629 707.633Z"/>
	<path fill="#F6F7EB" transform="scale(0.0950521 0.0962445)" d="M531.618 360.707C532.777 359.508 534.18 358.421 535.612 357.562C540.261 354.776 547.17 354.907 552.312 356.132C558.43 358.496 562.784 361.77 565.511 367.875C566.219 369.46 566.763 371.12 567.164 372.809C567.394 374.165 567.575 374.623 567.082 375.938C567.407 376.107 567.791 376.368 568.146 376.448L569.762 376.954C572.864 378.412 578.766 379.899 581.016 382.262C582.022 383.317 582.751 384.847 583.492 386.111L588.061 394.125L600.884 418.606L621.962 467.013L624.7 472.58C625.214 473.518 626.139 474.786 626.393 475.785C626.487 476.156 626.44 476.288 626.387 476.622C623.522 474.837 620.996 472.091 618.183 470.102C609.169 463.728 599.762 460.962 589.203 458.456C569.559 455.782 548.073 459.567 531.999 471.751C529.485 473.656 527.414 475.784 525.262 478.09L532.548 399.4C532.673 398.592 532.689 397.831 532.687 397.014L531.449 396.098C527.984 393.381 525.187 388.904 523.754 384.787C521.66 378.77 522.562 372.565 525.273 366.933C527.36 364.805 529.264 362.554 531.618 360.707Z"/>
	<path fill="#D1CECF" transform="scale(0.0950521 0.0962445)" d="M525.273 366.933C527.36 364.805 529.264 362.554 531.618 360.707C531.404 364.148 530.906 367.496 530.844 370.961L531.449 396.098C527.984 393.381 525.187 388.904 523.754 384.787C521.66 378.77 522.562 372.565 525.273 366.933Z"/>
	<path fill="#F6F7EB" transform="scale(0.0950521 0.0962445)" d="M299.095 643.333C292.584 645.649 287.091 647.609 281.628 651.928C285.864 642.903 290.027 631.226 297.11 624.039C297.668 623.473 299.247 621.558 299.908 621.315C300.822 620.979 303.351 621.309 304.436 621.307L341.237 621.375C342.285 621.4 343.378 621.293 344.354 621.695C347.129 622.942 348.954 626.145 350.45 628.688C355.177 636.722 358.375 645.55 362.451 653.912L374.595 678.852C377.316 684.468 380.22 690.126 382.415 695.973C383.242 698.178 383.88 699.851 383.596 702.24C383.523 702.855 383.434 703.258 383.792 703.799L381.854 708.102L362.683 708.095L285.367 708.308L263.05 708.401C259.211 708.413 255.069 708.757 251.294 708.181L270.577 673.058C273.804 667.381 276.974 661.048 281.429 656.246C286.248 651.051 293.175 646.716 299.611 643.866L299.095 643.333Z"/>
	<path fill="#D1CECF" transform="scale(0.0950521 0.0962445)" d="M299.095 643.333C292.584 645.649 287.091 647.609 281.628 651.928C285.864 642.903 290.027 631.226 297.11 624.039C297.668 623.473 299.247 621.558 299.908 621.315C300.822 620.979 303.351 621.309 304.436 621.307L341.237 621.375C342.285 621.4 343.378 621.293 344.354 621.695C347.129 622.942 348.954 626.145 350.45 628.688C355.177 636.722 358.375 645.55 362.451 653.912L374.595 678.852C377.316 684.468 380.22 690.126 382.415 695.973C383.242 698.178 383.88 699.851 383.596 702.24C383.523 702.855 383.434 703.258 383.792 703.799L381.854 708.102L362.683 708.095C361.401 701.585 359.617 695.25 357.81 688.875C354.511 677.24 351.427 665.612 345.561 654.939C342.146 648.728 337.029 644.171 330.373 641.686C322.743 638.836 312.589 639.873 304.857 641.954C303.093 642.429 301.362 643.285 299.611 643.866L299.095 643.333Z"/>
	<path fill="#F6F7EB" transform="scale(0.0950521 0.0962445)" d="M299.095 643.333C292.584 645.649 287.091 647.609 281.628 651.928C285.864 642.903 290.027 631.226 297.11 624.039C297.668 623.473 299.247 621.558 299.908 621.315C300.822 620.979 303.351 621.309 304.436 621.307L341.237 621.375C342.285 621.4 343.378 621.293 344.354 621.695C344.402 625.042 343.372 627.835 342.45 631.006C341.461 634.41 340.514 637.965 339.142 641.234C329.262 639.128 316.632 637.6 306.752 640.575C304.251 641.328 301.339 641.967 299.095 643.333Z"/>
	<path fill="#F6F7EB" transform="scale(0.0950521 0.0962445)" d="M462.747 621.444C465.611 621.406 468.577 621.214 471.419 621.555C472.816 622.492 473.892 623.458 474.886 624.82C480.499 632.505 484.639 642.148 488.904 650.631L506.846 684.141C511.003 691.97 514.65 700.286 519.629 707.633L494.177 707.759L381.854 708.102L383.792 703.799L393.446 682.162C396.703 674.682 399.882 666.161 405.188 659.898C413.626 649.937 426.457 641.561 439.664 640.472L439.503 639.547C439.071 639.784 437.948 639.833 437.416 639.919L431.607 640.989C421.561 643.159 413.913 647.399 405.851 653.581C406.833 650.604 408.367 647.799 409.636 644.934C412.478 638.519 414.997 631.993 419.401 626.438C420.426 625.144 422.614 622.437 424.174 621.869C424.737 621.663 425.721 621.685 426.342 621.612L462.747 621.444Z"/>
	<path fill="#E94F37" transform="scale(0.0950521 0.0962445)" d="M340.9 550.72C346.817 552.776 352.746 554.9 358.872 556.25C375.681 559.952 395.404 559.897 412.162 555.92C417.129 554.741 421.836 552.886 426.683 551.331L426.342 621.612C425.721 621.685 424.737 621.663 424.174 621.869C422.614 622.437 420.426 625.144 419.401 626.438C414.997 631.993 412.478 638.519 409.636 644.934C408.367 647.799 406.833 650.604 405.851 653.581C413.913 647.399 421.561 643.159 431.607 640.989L437.416 639.919C437.948 639.833 439.071 639.784 439.503 639.547L439.664 640.472C426.457 641.561 413.626 649.937 405.188 659.898C399.882 666.161 396.703 674.682 393.446 682.162L383.792 703.799C383.434 703.258 383.523 702.855 383.596 702.24C383.88 699.851 383.242 698.178 382.415 695.973C380.22 690.126 377.316 684.468 374.595 678.852L362.451 653.912C358.375 645.55 355.177 636.722 350.45 628.688C348.954 626.145 347.129 622.942 344.354 621.695C343.378 621.293 342.285 621.4 341.237 621.375L340.9 550.72Z"/>
	<path fill="#F6F7EB" transform="scale(0.0950521 0.0962445)" d="M213.417 386.772C219.46 385.631 228.067 385.606 233.301 389.15L234.048 389.722L234.72 389.995C238.61 393.073 242.372 398.345 242.974 403.389C243.675 409.255 242.564 413.95 239.546 418.984C238.092 420.475 236.443 422.615 234.721 423.726L235.482 495.715L240.189 522.877C240.799 525.219 241.887 528.224 241.795 530.628L235.342 526.151C214.81 513.568 190.244 512.622 167.376 518.17C155.972 521.487 147.195 526.412 138.999 534.991C139.335 532.197 140.408 529.573 141.333 526.93L145.179 516.063C156.801 483.686 170.427 451.759 184.978 420.603C186.218 417.319 188.224 413.554 190.208 410.664C190.76 409.861 191.396 408.803 192.247 408.285C193.587 407.47 195.389 407.731 196.73 406.816L197.208 406.468L197.278 405.514C197.806 405.062 197.764 404.359 197.889 403.688L196.969 402.375L197.476 401.621L198.052 401.077C198.395 399.854 198.747 398.64 199.328 397.505C202.347 391.62 207.393 388.777 213.417 386.772Z"/>
	<path fill="#F6F7EB" transform="scale(0.0950521 0.0962445)" d="M525.262 478.09C527.414 475.784 529.485 473.656 531.999 471.751C548.073 459.567 569.559 455.782 589.203 458.456C599.762 460.962 609.169 463.728 618.183 470.102C620.996 472.091 623.522 474.837 626.387 476.622C626.807 478.821 626.34 481.306 626.242 483.547L625.34 499.91C625.608 502.735 625.204 506.002 623.991 508.595C621.237 518.08 615.089 525.407 606.465 530.184L600.012 533.543L600.359 533.884C602.492 536.013 602.664 537.779 602.632 540.674C602.61 542.786 602.121 544.02 600.751 545.625C601.659 546.316 602.726 546.688 603.627 547.389C606.163 549.361 607.85 552.789 608.271 555.938C609.057 561.809 607.288 567.944 603.639 572.585C601.373 575.467 598.304 577.911 595.115 579.688C597.306 570.461 599.247 560.08 597.158 550.675C593.024 553.554 590.446 554.498 585.365 553.497C583.255 553.081 580.9 552.329 579.089 551.13C578.334 550.63 577.215 549.312 576.425 549.102C574.48 561.638 572.165 575.108 561.282 583.14C557.949 585.6 554.144 587.108 550.125 588.034C545.738 589.046 541.105 589.589 536.603 589.603L536.629 578.128C543.55 577.205 551.324 576.817 556.042 570.962C560.742 565.131 559.724 556.384 559.145 549.365C556.225 551.029 552.289 553.274 551.301 556.73C549.761 562.117 550.317 569.406 550.024 575.058L536.592 577.211C536.871 569.246 537.406 559.634 542.046 552.832C543.438 550.793 545.451 549.015 547.247 547.32C547.713 546.88 547.528 547.035 548.034 546.687L547.537 545.044C546.888 543.304 546.391 541.78 546.397 539.894C546.405 537.331 547.874 535.369 549.615 533.611L549.94 533.29C548.149 532.611 546.336 531.927 544.675 530.963C533.339 524.378 528.36 513.376 525.233 501.301C524.631 498.327 524.961 494.698 524.952 491.642C524.939 487.307 524.472 482.341 525.262 478.09Z"/>
	<path fill="#393E41" transform="scale(0.0950521 0.0962445)" d="M575.716 526.952C579.15 526.974 582.288 526.509 585.422 528.381C587.298 529.501 588.783 531.15 589.293 533.323C589.444 533.967 589.606 534.232 589.201 534.81C587.562 537.152 580.085 538.172 577.245 538.798L576.068 539.126L575.641 538.312C575.085 537.223 574.592 536.216 573.76 535.297C571.05 532.306 567.46 532.402 563.729 532.268C567.453 529.379 571.104 527.852 575.716 526.952Z"/>
	<path fill="#393E41" transform="scale(0.0950521 0.0962445)" d="M525.262 478.09C527.414 475.784 529.485 473.656 531.999 471.751C548.073 459.567 569.559 455.782 589.203 458.456C599.762 460.962 609.169 463.728 618.183 470.102C620.996 472.091 623.522 474.837 626.387 476.622C626.807 478.821 626.34 481.306 626.242 483.547L625.34 499.91C618.994 491.153 609.914 485.794 599.722 482.529C582.257 476.935 561.176 478.39 544.775 486.764C537.473 490.335 530.319 494.836 525.233 501.301C524.631 498.327 524.961 494.698 524.952 491.642C524.939 487.307 524.472 482.341 525.262 478.09Z"/>
	<path fill="#F6F7EB" transform="scale(0.0950521 0.0962445)" d="M167.376 518.17C190.244 512.622 214.81 513.568 235.342 526.151L241.795 530.628C242.009 530.943 242.295 531.22 242.438 531.573C243.028 533.03 242.623 536.815 242.625 538.459C242.632 544.415 243.281 551.196 242.431 557.057C243.441 559.346 242.481 561.969 241.842 564.332C238.729 574.769 232.517 587.114 222.453 592.5C221.475 593.023 220.527 593.552 219.433 593.766C216.644 593.665 214.067 595.039 211.616 596.25C212.385 596.69 211.718 596.377 212.606 596.597C213.942 596.929 215.374 598.203 215.985 599.438C216.622 600.723 216.679 602.873 216.263 604.219L216.103 604.603C214.073 605.321 210.578 604.788 208.369 604.722L208.543 611.716L208.435 613.664C208.805 617.13 208.638 620.691 209.068 624.102C209.839 630.215 212.976 634.453 217.382 638.466L217.904 638.789C221.75 641.149 227.361 643.065 231.914 642.563L232.467 652.669L231.371 652.845L231.039 652.641C230.626 652.514 229.897 652.554 229.5 652.335C227.355 651.154 225.478 650.914 223.094 650.401C219.08 649.537 214.481 648.702 210.76 646.904L210.382 646.718C200.483 641.948 197.032 632.589 192.758 623.276C191.451 621.138 191.334 616.405 191.252 613.913L190.893 611.979C189.731 613.941 188.164 615.42 186.002 616.23C181.241 618.012 176.193 616.01 171.929 613.983C168.86 624.211 172.048 634.697 175.165 644.538L174.892 644.557C168.628 640.324 162.948 634.684 160.957 627.154C159.891 623.125 159.483 617.136 161.79 613.453C163.494 610.733 165.479 610.319 168.408 609.72C166.809 607.991 165.42 606.604 165.245 604.125C165.012 600.832 166.281 598.465 168.423 596.079L168.733 595.739C162.248 591.95 156.028 588.014 150.882 582.462C146.117 577.321 142.802 571.301 140.975 564.54C140.448 562.59 139.873 560.817 139.957 558.762C139.141 557.199 139.532 553.905 139.507 552.089C139.43 546.465 139.72 540.566 138.999 534.991C147.195 526.412 155.972 521.487 167.376 518.17Z"/>
	<path fill="#D1CECF" transform="scale(0.0950521 0.0962445)" d="M217.382 638.466L216.74 638.431C215.292 638.165 214.013 636.754 213.14 635.656C212.547 634.908 212.578 635.077 211.695 634.91C209.68 633.182 207.728 630.144 207.085 627.552L206.99 627.128C205.987 622.947 207.851 617.908 208.435 613.664C208.805 617.13 208.638 620.691 209.068 624.102C209.839 630.215 212.976 634.453 217.382 638.466Z"/>
	<path fill="#393E41" transform="scale(0.0950521 0.0962445)" d="M179.167 596.564C180.725 592.883 182.677 591.178 186.331 589.725C190.649 588.008 196.595 588.059 200.835 589.953C203.699 591.232 205.767 593.312 208.101 595.351L207.714 595.302C204.132 594.92 198.471 595.141 195.562 597.474C193.807 598.881 192.522 600.557 191.703 602.658L180.937 598.82C179.705 598.215 179.53 597.851 179.167 596.564Z"/>
	<path fill="#393E41" transform="scale(0.0950521 0.0962445)" d="M167.376 518.17C190.244 512.622 214.81 513.568 235.342 526.151L241.795 530.628C242.009 530.943 242.295 531.22 242.438 531.573C243.028 533.03 242.623 536.815 242.625 538.459C242.632 544.415 243.281 551.196 242.431 557.057C235.058 548.173 224.399 543.123 213.41 540.104C195.683 535.235 173.639 536.929 157.441 546.068C150.557 549.227 144.859 552.895 139.957 558.762C139.141 557.199 139.532 553.905 139.507 552.089C139.43 546.465 139.72 540.566 138.999 534.991C147.195 526.412 155.972 521.487 167.376 518.17Z"/>
	<path fill="#F6F7EB" transform="scale(0.0950521 0.0962445)" d="M350.178 325.452L419.347 325.477L456.654 326.045C466.481 330.095 474.909 336.226 480.769 345.188C482.856 348.379 484.423 351.907 485.952 355.39C487.127 361.432 486.452 368.547 486.439 374.721L486.377 416.108L486.566 462.392C486.622 473.443 487.319 484.981 485.451 495.909C484.593 500.93 482.949 505.703 480.322 510.077C476.318 516.071 471.58 521.935 465.605 526.097L463.079 528.149C451.578 536.933 440.218 545.849 426.683 551.331C421.836 552.886 417.129 554.741 412.162 555.92C395.404 559.897 375.681 559.952 358.872 556.25C352.746 554.9 346.817 552.776 340.9 550.72C328.347 545.479 315.869 538.529 305.123 530.172L299.815 525.608C297.701 524.108 295.881 522.18 294.055 520.348C288.89 515.163 284.5 509.638 281.706 502.828C276.315 489.689 277.434 474.407 277.449 460.483L277.504 431.874L277.62 370.517C278.739 356.883 282.658 345.163 292.586 335.337C296.571 331.392 301.708 327.741 307.1 326.047C312.425 324.374 320.172 325.268 325.765 325.316L350.178 325.452Z"/>
	<path fill="#D1CECF" transform="scale(0.0950521 0.0962445)" d="M373.623 508.312L386.016 508.446C387.697 508.438 390.107 508.108 391.634 508.688C391.597 509.898 391.681 510.919 390.938 511.945L378.391 512.078C377.03 512.104 374.276 512.533 373.33 511.688C373.207 510.442 373.013 509.469 373.623 508.312Z"/>
	<path fill="#EE805E" transform="scale(0.0950521 0.0962445)" d="M456.292 484.281L457.171 484.567L457.501 506.496C459.19 506.529 461.058 506.399 462.721 506.624L462.741 506.975C460.926 506.989 458.677 507.22 456.925 506.755C455.764 506.447 455.029 505.661 454.449 504.658C452.615 501.488 453.06 496.658 453.045 493.102C453.036 490.876 452.864 488.54 453.448 486.375C454.246 485.379 455.19 484.897 456.292 484.281Z"/>
	<path fill="#E94F37" transform="scale(0.0950521 0.0962445)" d="M457.171 484.567L478.273 484.573C478.263 489.874 479.658 500.217 475.56 504.267C475.092 504.73 474.377 505.42 473.773 505.704C473 506.066 471.563 506.059 470.69 506.14C468.241 506.368 465.606 506.755 463.153 506.658L462.721 506.624C461.058 506.399 459.19 506.529 457.501 506.496L457.171 484.567Z"/>
	<path fill="#E94F37" transform="scale(0.0950521 0.0962445)" d="M285.492 484.545L297.949 484.608C299.796 484.68 302.12 484.64 303.759 485.597C305.117 486.39 306.017 488.054 306.281 489.562C306.574 491.24 306.483 493.098 306.537 494.798C306.639 498.055 307.41 503.79 305.647 506.438C303.337 507.673 298.385 507.03 295.756 506.977C292.577 506.912 289.671 506.319 287.454 503.841C283.484 499.403 285.045 490.097 285.492 484.545Z"/>
	<path fill="#F4B462" transform="scale(0.0950521 0.0962445)" d="M373.532 369.526L373.888 369.486C390.333 367.804 408.512 373.938 421.188 384.406C433.096 394.24 440.402 407.653 441.806 422.98C443.233 438.562 438.623 454.128 428.459 466.1C420.35 475.654 409.21 482.775 397.054 485.909C392.364 487.118 387.596 487.585 382.783 487.979L382.185 488.045C365.307 489.784 347.351 483.528 334.311 472.916C322.243 463.095 315.151 449.207 313.734 433.789C312.424 419.535 316.543 405.397 325.824 394.41C337.617 380.45 355.336 371.095 373.532 369.526Z"/>
	<path fill="#393E41" transform="scale(0.0950521 0.0962445)" d="M374.846 382.278C387.247 381.703 398.909 385.43 408.778 392.997C417.725 399.858 424.043 409.75 425.435 421.048C426.982 433.614 423.814 446.469 415.936 456.491C408.374 466.113 397.256 471.765 385.217 473.238C372.09 474.532 360.263 470.32 349.96 462.192C340.682 454.871 334.486 442.996 333.188 431.295C331.953 420.174 334.42 408.371 341.668 399.615C350.121 389.405 361.755 383.513 374.846 382.278Z"/>
	<path fill="#F6F7EB" transform="scale(0.0950521 0.0962445)" d="M374.031 393.856C383.051 392.646 392.938 395.772 400.343 400.808C408.061 406.056 413.152 414.507 414.848 423.617C416.38 431.843 414.67 440.085 409.868 446.962C404.356 454.857 396.016 459.804 386.65 461.546C377.069 462.882 367.245 461.052 359.311 455.336C351.351 449.601 346.277 441.422 344.747 431.726C343.321 422.692 346.099 413.665 351.507 406.383C357.182 398.741 364.897 395.288 374.031 393.856Z"/>
	<path fill="#859198" transform="scale(0.0950521 0.0962445)" d="M373.363 398.727C376.76 398.385 380.547 398.361 383.921 398.951C392.887 400.522 401.41 405.541 406.494 413.184C410.448 419.129 412.585 427.917 411.14 435L411.017 435.562C410.385 438.584 409.122 441.513 407.517 444.147C402.928 451.677 395.79 456.032 387.393 458.152C378.697 459.53 370.195 457.816 362.823 452.975C356.396 448.755 351.699 440.951 350.243 433.464C348.558 424.798 350.373 416.94 355.455 409.702C359.927 403.333 365.781 400.073 373.363 398.727Z"/>
	<path fill="#F6F7EB" transform="scale(0.0950521 0.0962445)" d="M376.817 62.9253L385.452 62.8187L385.505 76.421C394.559 77.2558 403.616 79.2593 412.575 80.8532C429.475 83.8597 446.428 86.9301 463.025 91.3598C470.936 93.3269 478.985 94.872 483.653 102.33C487.161 107.933 486.031 115.912 486.034 122.271L486.037 140.625C486.04 141.189 485.897 144.345 486.109 144.647C486.335 144.966 489.247 146.082 489.75 146.336L501.843 153.102C508.834 157.288 515.705 161.82 521.391 167.71C532.777 179.505 536.314 194.979 537.109 210.857C537.591 220.472 537.387 229.85 535.004 239.24C531.119 254.548 521.932 267.31 508.191 275.321C497.578 281.509 485.487 284.978 473.599 287.707C462.536 290.246 450.706 292.293 439.3 291.78L400.158 292.273L365.953 292.424L303.786 291.051C295.102 290.037 286.412 287.99 278.05 285.457C263.553 281.066 248.437 274.749 238.857 262.474C230.402 251.64 227.228 237.497 225.975 224.093C225.284 216.697 225.095 209.322 226.077 201.938C227.957 187.79 233.459 174.044 243.691 163.824C249.684 157.839 257.368 153.09 264.935 149.365L276.924 143.883C279.122 142.861 281.418 141.923 283.361 140.456C282.303 140.335 281.973 140.428 281.174 139.688L281.139 122.084C281.123 115.195 280.184 107.118 284.226 101.142C285.908 98.6549 288.388 96.818 291.174 95.7355C296.247 93.7647 302.365 93.1432 307.695 91.7635L370.095 77.2401L371.505 76.8881C373.266 76.4053 375.126 76.2428 376.934 75.9967L376.817 62.9253Z"/>
	<path fill="#D1CECF" transform="scale(0.0950521 0.0962445)" d="M370.892 96.0367L372.732 96.2764L374.73 96.4111C374.237 97.457 373.183 97.7931 372.867 98.4375C372.16 99.8794 372.195 103.5 372.018 105.188C372.776 105.849 373.319 105.888 374.269 106.098C373.001 106.241 371.584 106.097 370.3 106.084L370.488 97.6363L370.498 96.3933L370.892 96.0367Z"/>
	<path fill="#E94F37" transform="scale(0.0950521 0.0962445)" d="M315.12 280.651C313.755 280.285 312.5 279.994 311.316 279.199C306.124 275.71 300.249 273.185 295.003 269.681C282.53 261.351 273.901 246.878 270.895 232.342C267.553 216.179 270.568 198.076 279.714 184.224C289.076 170.045 304.24 162.005 319.753 156.251C327.567 153.352 335.597 150.916 343.778 149.294C351.515 147.759 359.583 147.278 367.454 146.995C385.864 146.334 405.016 147.348 422.786 152.533C432.329 155.317 442.03 159.846 450.278 165.407C463.967 174.638 473.62 186.427 476.765 202.811C480.089 220.125 476.942 241.389 467 256.057C460.082 266.263 450.996 272.35 440.138 277.726C437.96 278.804 434.952 280.634 432.562 280.928L431.056 280.96C428.495 281.017 425.857 282.086 423.415 280.962C423.423 280.877 424.191 280.587 424.21 280.579L427.875 278.956C436.591 274.897 444.902 269.547 451.881 262.896C464.382 250.985 469.897 233.701 470.158 216.781C470.398 201.233 463.912 186.823 453.037 175.817C433.257 155.799 403.795 151.24 376.875 151.032C348.379 150.812 316.658 155.611 295.565 176.587C283.896 188.192 277.57 203.521 277.502 219.955C277.431 237.189 283.38 253.938 295.597 266.252C298.332 269.008 301.148 271.499 304.374 273.678C307.924 276.075 311.712 278.045 315.12 280.651Z"/>
	<path fill="#393E41" transform="scale(0.0950521 0.0962445)" d="M376.817 62.9253L385.452 62.8187L385.505 76.421L385.506 80.1277L385.414 92.162C385.27 95.6836 384.579 99.7211 385.168 103.187C385.37 104.375 385.9 105.148 386.701 106.019C389.838 106.986 394.821 106.388 398.188 106.394L423.649 106.372L454.243 106.207C459.887 106.168 465.778 106.45 471.381 105.862C475.496 108.198 478.272 111.561 481.025 115.335L481.121 141.618L475.51 139.553C462.641 134.218 448.139 130.86 434.496 128.156C412.886 123.871 389.904 121.39 367.875 122.589C341.275 124.036 315.106 130.566 289.831 138.707L289.705 122.404C289.68 119.942 289.332 116.909 289.775 114.534C290.064 112.982 291.265 111.456 292.293 110.293C293.54 108.883 295.337 107.261 297.256 106.936C299.561 106.545 302.204 106.775 304.553 106.777L318.379 106.775L370.3 106.084C371.584 106.097 373.001 106.241 374.269 106.098C374.986 106.095 375.171 106.047 375.8 105.779C376.495 104.606 377.392 103.258 377.709 101.923C378.313 99.3699 377.768 95.4388 377.282 92.8538L376.934 75.9967L376.817 62.9253Z"/>
	<path fill="#393E41" transform="scale(0.0950521 0.0962445)" d="M315.12 280.651C311.712 278.045 307.924 276.075 304.374 273.678C301.148 271.499 298.332 269.008 295.597 266.252C283.38 253.938 277.431 237.189 277.502 219.955C277.57 203.521 283.896 188.192 295.565 176.587C316.658 155.611 348.379 150.812 376.875 151.032C403.795 151.24 433.257 155.799 453.037 175.817C463.912 186.823 470.398 201.233 470.158 216.781C469.897 233.701 464.382 250.985 451.881 262.896C444.902 269.547 436.591 274.897 427.875 278.956L424.21 280.579C424.191 280.587 423.423 280.877 423.415 280.962C422.264 281.446 420.408 281.622 419.533 282.546L419.195 282.938C417.938 283.143 418.724 282.519 417.973 282.188C417.622 282.033 415.893 282.204 415.435 282.207L405.675 282.224L344.195 282.011L323.307 281.953C321.722 281.949 318.562 282.353 317.129 281.918C316.545 281.741 315.667 280.996 315.12 280.651Z"/>
</svg>
